<svg id="Layer_1" data-name="Layer 1" xmlns="http://www.w3.org/2000/svg" width="1066.63" height="346.66" viewBox="0 0 1066.63 346.66"><title>bg-border</title><path d="M15,5.73L265.47,5c30.17-.09,60.57-0.16,90.19,5.55,14,2.7,27.9,6.7,42.18,7.15,16.31,0.51,32.34-3.64,48.44-6.28,66.11-10.85,133.74,3.74,200.65.37,51.48-2.59,103.1-15.8,154-7.59,15.55,2.51,30.73,7,46.3,9.34,22.42,3.39,45.25,2.33,67.91,1.25l148.52-7c1.21,39.82,1.18,79.67,1.15,119.51L1064.65,299c0,7.57,0,15.35-2.8,22.4-8.42,21.58-37.13,26.41-60,22.61-36.71-6.12-70.18-25.44-106.84-31.85-42-7.35-84.89,2.73-127.41,6.47-95.14,8.37-190.95-15.16-286.1-6.87-43.11,3.76-87.33,13.93-128.93,2-19.74-5.67-37.91-16.13-57.85-21.08-46.5-11.54-94.25,8.13-141.54,15.78a283.93,283.93,0,0,1-131.91-10c-2.51-.81-5.13-1.74-6.86-3.73-2.19-2.52-2.45-6.14-2.6-9.47L1.9,68C0.84,44.67.72,18.63,16.62,1.56"/><path d="M15,7.23l210.13-.64c34.62-.11,69.57-1.5,104.09,1.73,17,1.59,33.31,5.56,50,8.64,16,2.95,31.34,2.3,47.3-.49,17.39-3,34.55-6.07,52.21-7.06,17-.95,34.09-0.69,51.12,0,33.54,1.42,67,4.66,100.64,4.29S697,7.86,730.23,4.81c16.8-1.54,33.71-2.39,50.56-1.36,17.68,1.08,34.63,5.21,51.9,8.86,37,7.83,74.69,4.3,112.14,2.52L1063.65,9.2l-1.5-1.5c1.74,58.19,1.15,116.43,1.1,174.64l-0.07,86.94c0,14.06,1.22,28.8-.61,42.75a32.58,32.58,0,0,1-18,25.6c-20,10.27-43.92,5.69-64.37-.26-24.86-7.24-48.5-18.25-73.7-24.37-54.56-13.24-110.51,3.91-165.42,5.64-56,1.76-111.81-5.41-167.67-8.68-27.88-1.63-55.87-2.29-83.75-.38-27.46,1.88-54.65,6.88-82.17,8-14.34.6-28.81,0.14-42.93-2.59-13.12-2.53-25.46-7.36-37.76-12.47s-24.41-10.11-37.41-12.65a143,143,0,0,0-38.93-1.75c-26.54,2.15-52.27,9.55-78.21,15.09-26.92,5.75-54.17,8.42-81.69,6.71a281.85,281.85,0,0,1-42.35-5.88q-9.11-2-18.08-4.56c-3.08-.89-6.2-1.74-9.21-2.83-5.9-2.14-7.2-5.8-7.61-11.5-2.06-28.74-2.63-57.68-3.95-86.46l-4-87.52q-1-21.62-2-43.23c-0.52-11.69-.89-23.54.95-35.14C6.11,21.67,10,11.1,17.68,2.62,19,1.19,16.85-.94,15.56.5,0.61,17.12-.53,40.29.15,61.55c0.94,29.56,2.66,59.11,4,88.66l4,88.57c0.69,15.11,1.33,30.23,2.07,45.34,0.22,4.6.44,9.47,4.23,12.66,4.08,3.43,10.81,4.47,15.78,5.89a285.79,285.79,0,0,0,80.89,10.81c27.7-.29,54.47-5.51,81.36-11.74,27.73-6.42,56.28-13.37,85-10.54,28,2.76,51.68,18.16,78.55,25,27.3,6.94,55.79,4.85,83.47,1.71,29-3.28,57.68-6.53,86.91-6.49,58.1,0.08,115.8,8.2,173.83,10.1a572.61,572.61,0,0,0,87.64-3.6c28.22-3.41,56.54-8,85.05-6.68s54.73,11,81.34,20.64c21.92,7.91,45.61,16.62,69.32,14.45,17.58-1.61,35.89-9.72,40.87-28.14,3.53-13.07,1.7-28.09,1.71-41.48l0-45.59c0.05-59.79.53-119.6-.16-179.39q-0.26-22-.9-44a1.52,1.52,0,0,0-1.5-1.5l-106.09,5c-33.79,1.6-68.41,5.38-102.17,1.8-17.63-1.87-34.62-7-52-10A238.61,238.61,0,0,0,754.54.19c-33.33,1.18-66.24,7.22-99.48,9.56-67,4.71-134.21-10-201.07-1-17.35,2.33-34.49,7.24-52.07,7.47-17,.22-33.31-5-49.89-7.87-33.43-5.86-67.6-4.92-101.41-4.81L15,4.23a1.5,1.5,0,0,0,0,3h0Z"/></svg>