<svg data-name="Layer 1" xmlns="http://www.w3.org/2000/svg" viewBox="0 0 271.76 402.51"><title>zombee-shoot</title><path d="M39.8 270.46a16.75 16.75 0 0 0-1.8 2.09c-.46.58-2.12 1.46-7.67-.58a11.88 11.88 0 0 1 7.25-2.21l4.87-.5s-2.32.99-2.65 1.2zM155.88 351.69c-.19-.25-3.64-4.49-4.45-5.62s-2.53-2.93-2.53-2.93l-14.12-19.48c-1.5-2.06-3.72-5.19-3.85-6.78-.62-8.06-5.11-13.46-8.25-17.46s-16-14.42-16-14.42l-4.15 4.21s1.13 5.5 1.31 5.88 2.44 3.56 3.56 5.31 5.12 10.38 5.75 13.19.81 10.52.86 10.53c.69.06 9.33 9 12 12.91a61.36 61.36 0 0 0-10.43 2.42l2.5 11.58s9.15 1.06 11 1.38 4.82.86 5.57 1.67a20.84 20.84 0 0 0 6.63 4.4c3 1.13 7.46 2 8.4 1.62a21.08 21.08 0 0 0 6.12-4.6c1.68-2.14.27-3.56.08-3.81z" fill="#13161a"/><path d="M22.48 303.14c1.05-.72 2.14-1.58 3.07-2.22 3.57-2.46 5.93-4.18 5.77-5.86-.07-.68-5.35 2.66-5.35 2.66s-3.84 4.61-3.49 5.42zM29.35 288.29c-6.21 2.53-9.76 3.94-11.37 5.36a11.44 11.44 0 0 0-2.42 4.09s6.42-3.33 6.82-3.18c-6.42 5.15-4.4 8.39-4.4 8.39s3.49-6.16 8.29-8.49c3.28-1.06 8.28-2.68 9.45-7.22.25-.56-6.11 4-7 4a5.91 5.91 0 0 1 .63-2.95zM30.31 279.07c-.46.25-4.29-.27-4.71-.36-2.21-.46-4.5-1.08-5.5-.71-.44.16-1.54 1-1.75 1s-10.66 1.86-10.66 1.86 7.5.63 7.83.83c4 3.42 7.41.43 8.54.56a8.17 8.17 0 0 1-1.83 1.13c5.33.26 10.66 2.57 16.5.58a49.24 49.24 0 0 0 9.71-5.06s-5.92 1.79-7.17 1c3-.19 4.54-1.9 4.67-5.58-.87.63-.83 1.71-3.71 2.75-.5.18-9.77.27-12.61-1.11-.67 0-8.7.18-8.7.18s6.3 2 6.88 2.36c.96.09 2.96.32 2.51.57z" fill="#231f20"/><path d="M101.46 287.52c.37.06.92-3.11 2.33-2.64s15.65 9.73 23 22.42a29.31 29.31 0 0 1 2.8 9.08c.12 1.3 1.91 4.92 1.91 4.92s11.18 15.53 12 16.59 5.18 7.29 5.53 7.42a97.38 97.38 0 0 1 6.14 7.72c1.11 1.6-5 5.93-6 5.93a27.27 27.27 0 0 1-9.53-2.47c-3.3-1.77-3.3-3.06-5.18-4s-14.24-2-16.12-2.59-4.24-2.82-4.94-3.41-2.82.23-4.24.23a4.05 4.05 0 0 1-2.12-.47l-.24-1.53 3.18-2.12s7.53-2.47 9.06-2.94 9.3-1.88 9.3-1.88-5.77-7.65-8.47-10.12-7.65-6.71-8.71-7.88S98 293.64 98 293.64s2-6.36 3.46-6.12z" fill="#826451" data-name="BACK LEG"/><path d="M105.8 288.07c.88.58 8.81 6.38 12.56 11s7.25 9.19 8.25 12.63 1.44 6.38 2.25 8.25 8 11.81 8 11.81l10.5 14.13a23.74 23.74 0 0 1 2.37 2c.31.44 4.12 5.13 4.19 5.5s-2.87 4.31-4.5 4.44c1.74-2.21 3.28-3.08 1.63-5.19-2.08-2.65-3.76-5.65-4.33-6.27s-19.55-26.6-20.11-27.35-1.44-4.19-2.06-6.37-20.94-22.44-21.12-22.69 1.49-2.47 2.37-1.89zM136.16 352.55s-3.25-1.75-4.94-1.81-11.19-1-11.19-1l-1.68-1.74a13 13 0 0 0 3.56 1.19c1.44.13 5.44.81 6.19.81s3.87-.62 4.56-.44a9.21 9.21 0 0 1 3.5 2.99z" fill="#d5c7c0"/><path d="M126.1 359.41c-1.94-2-5.93-5.9-5.93-5.9 1.76-4-2-5.68-2-5.94l.13-1.08c-.4-1.33-1.25-4-1.58-5.08-2.94-10-2.08-25.2-2.21-27.29s-7.2-15.37-7.87-16.5a19.42 19.42 0 0 1-3.62-8 54 54 0 0 1 4.14-4.48c2-1.74 5.76-5.1 6.89-6.2s5.71-5.54 5.71-5.54l.24-.23-1.71-1-4.61 5c-.32.27-3.12 2.63-3.45 3s-5.83 5.9-6.39 6.42-2 2-2.11 2.12a3.1 3.1 0 0 0-.09 1.5 25.62 25.62 0 0 0 2 6c.19.29.51.83.89 1.46.6 1 1.35 2.26 1.92 3.11a116 116 0 0 1 5.68 11 18.1 18.1 0 0 1 1.05 5.62v.27c0 .46-.07 4-.17 6.93 0 1.21.24 6.65.34 7.29s.92 5.13 1 5.65c.09.36 1.2 4.58 1.43 5.12.11.25.35 1.21.57 2.06s.39 1.53.51 1.88.12.4.17.57a3.09 3.09 0 0 0 .54 1.21c.11.14.27.3.44.48a7.08 7.08 0 0 1 1.2 1.52c.41.77 0 3.38-.1 3.76a.64.64 0 0 0 0 .6.5.5 0 0 0 .44.2h.12a5.71 5.71 0 0 1 1.51 1.25c.46.5 3.78 3.95 4 4.17s2.66 5.26 3 6.21c.12.33.07 1.26-1.52 3.7a1.82 1.82 0 0 1-1 .74 2.16 2.16 0 0 0-.68.38 37.84 37.84 0 0 0-3.09 4.18l-.24.41c-.76 1.28-2.54 4.26-3.06 5.5l-.53 1.23c-.7 1.61-1.75 4-2.27 5.49a28.48 28.48 0 0 1-2.93 5.65 19 19 0 0 1-3.69 3.77 15.39 15.39 0 0 1-2.64.89c-.84.24-1.72.49-2.27.71l-.76.29a1.53 1.53 0 0 0-.77.42 7.12 7.12 0 0 1-1.39 1.15 3.58 3.58 0 0 1-1.84.34c-.49 0-1 0-1.3-.06a2 2 0 0 1-.76-.1.46.46 0 0 0-.23-.07h-.17a14.43 14.43 0 0 1-1.92.12h-.28a1.35 1.35 0 0 1-.49-.17.85.85 0 0 0-.39-.13h-.16a10.41 10.41 0 0 1-2.56.15 1 1 0 0 1-.49-.22.43.43 0 0 0-.53 0 4.51 4.51 0 0 1-1.28.1h-.89a2.22 2.22 0 0 1-.8-.14l-.11-.11H87a11.4 11.4 0 0 1-1.83.36 7.07 7.07 0 0 1-4-1.43 3.46 3.46 0 0 1-.76-1.61l1-.43a13.48 13.48 0 0 0 2.72-1.3c.08-.1.25-.36.43-.63s.41-.62.45-.67.59-.37 1.14-.72a35.45 35.45 0 0 0 4-2.65 4.72 4.72 0 0 1 1.1-1 4.13 4.13 0 0 1 .68-.21 4.17 4.17 0 0 0 1-.34 5 5 0 0 0 1.64-2.15c.49-1.15 2.81-5.86 2.83-5.9l-.53-.11c-.92 1.33-2.67 3.86-3.15 4.46.57-1 1.33-2.23 1.62-2.88s1.07-2.07 1.78-3.38c.61-1.12 1.18-2.18 1.39-2.62s.75-2 1.21-3.35c.34-1 .66-1.94.83-2.37S102 369.47 103 368s1.6-2.37 1.73-2.67a14.44 14.44 0 0 0 .6-3.46 25.21 25.21 0 0 0 0-3.61c-.13-.6-1.61-4.34-1.67-4.49l-5.38-15.08-4.54-12.42c0-.12-4.59-11.94-5.17-13.3a37.35 37.35 0 0 0-3-4.78l-1.06-1.56c-1.37-2-4.89-5.14-6.34-6.38a14.29 14.29 0 0 0-3-1.93 8.07 8.07 0 0 1-2.37-1.6 19.78 19.78 0 0 1-3.53-5.72 5.66 5.66 0 0 1 .69-4c.37-.74 4.15-7.69 4.19-7.76v-.1c0-.08.52-7.71.56-9.24S76 257.28 76 257.16l.06-.57-1.67 1.25-.95 10.24-1.2 12.42c-.35.57-2.93 4.85-3.9 6.73-1.08 2.1-.48 4.09.3 6.11s4.44 5.84 5 6 1.25.33 1.48.37 1.68 1.23 2.21 1.6c2.19 1.52 5.83 5.79 6 6 .38.33 3.95 5.83 4.19 6.35s16.59 44.86 16.62 45.76a38 38 0 0 1-.57 6c-.07.11-3.82 5.45-3.93 5.7s-1.83 5-2 5.75c-.12.58-6.92 12.5-6.92 12.5s2.5-1.32 2.87-1.62a20.07 20.07 0 0 1-1 1.8 4.65 4.65 0 0 1-1.21.42 4 4 0 0 0-.86.28 4.9 4.9 0 0 0-1 1.07l-.07.09c-.14.12-1.67 1-2.79 1.69-1.51.9-2.19 1.3-2.29 1.39a2.89 2.89 0 0 0-.48.79 5.34 5.34 0 0 1-.3.56c-.07 0-.4.17-.82.35-2.81 1.16-3.12 1.38-3.17 1.63a2.89 2.89 0 0 0 .38 2.21c.64 1.22 3.12 2 4.8 2.21a4.27 4.27 0 0 0 2-.44.65.65 0 0 0 .42.28s2.14.29 2.24.29c.6 0 .31-.43.85-.48.11.17 0 .36.33.46.07 0 2.6.19 2.73.19A1.56 1.56 0 0 1 94 402a1 1 0 0 0 .19.52c.32 0 2.07-.08 2.62-.13 0 0 .24-.28.26-.27s0 .27.18.27 3.39.27 4.54-.14c.15-.05 1.71-1.08 1.83-1.17a15.2 15.2 0 0 1 2.92-1.42c1.79-.56 3.4-.87 3.67-1 4.86-2.69 6.75-9.85 7.33-11.25s3.3-7.43 4.08-8.75 3.85-6 4.17-6.25c2.93-.77 3.91-5.12 3.83-5.67s-2.74-5.85-3.52-7.33z" fill="#13161a"/><path d="M270.51 186.89c-.52-.48-1.3-1.2-1.43-1.38s-1.66-1.34-5.93-4.29l-1.16-.8c-.4-.34-10.79-4.46-10.8-4.46a24.65 24.65 0 0 1-2.06-1.91c-.39-.39-.71-.7-.83-.79s-1.5-.62-10.85-3.67c-3.82-1.25-8.12-2.66-8.83-2.93l-.1-.14a1.09 1.09 0 0 0-.52-.52c-.66-.24-6.09-2.41-6.58-2.84s-11.49-8.44-12.73-9.35c-.37-.27-9.19-6.52-10.56-7.36-.34-.21-1.22-.68-2.43-1.34-3.3-1.78-10.35-5.38-11-6.66-3.69-7-7.85-31.23-7.38-34.61 1.12-11.28-3.66-16.94-6.22-20l-.1-.06c-2.47-2.93-7.79-5.82-10.77-6.93-1.24-.46-3.51-1.23-5.71-2-2.44-.83-5-1.69-5.33-1.87a6.07 6.07 0 0 1-.94-.76 13.09 13.09 0 0 0-3.25-2.29c-1.45-.68-5.2-2.32-7.93-3.52l-2.67-1.17a16.91 16.91 0 0 0-1.84-.68l-.39-.13a3.56 3.56 0 0 0-.46-.71c-.13-.65-.58-3.9-.92-6.31s-.58-4.08-.63-4.32c-.1-.45-.75-4.64-1-6.22h-1l-.29 2.26.74 4.5c0 .37.16 1.34.31 2.54.31 2.53.79 6.36.81 7.09a6.53 6.53 0 0 0 .16 1.46l.13.31h.28v.06a1.52 1.52 0 0 0 .92.92c.92.27 2.48.75 2.75.88l1.62.75c2.61 1.19 7.45 3.42 8.74 4.12a16.53 16.53 0 0 1 3.36 2.47 24.51 24.51 0 0 0 5.11 2.32l.54.17c2 .6 7.13 2.19 8.52 2.85 2.41 1.14 6.67 3.41 8.12 5.81.43.72.84 1.36 1.22 2a32.84 32.84 0 0 1 2.75 5 23.66 23.66 0 0 1 1.47 10.91 26.54 26.54 0 0 0 .24 4.29c.25 2 1.57 9.38 1.63 9.71l1.71 7.9c.19 1.06 1.91 10.41 2.59 11.6.06.12 1.49 2.87 2.91 3.85s9.55 5.79 11.95 7.19c2.66 1.55 15 10 15.56 10.51.25.25 1.32 1 3 2.28 1.16.84 2.74 2 2.91 2.16l.11.1a32.91 32.91 0 0 0 4.71 3l2.59.92a11.5 11.5 0 0 1 2 .86c.12.19.32.5 20 6.94l2.5 2.58 11.13 4.51 6.5 4.7 2.4 1.95a1.06 1.06 0 0 1-.44.25 7.72 7.72 0 0 1-2.85-.81l-.76-.68s-2.57-1.63-3.51-2.19-1.81-1.14-1.81-1.14l-.72.65 1.87 3.54 1.87 2.44.49 5.42a.8.8 0 0 1-.34-.37 17.13 17.13 0 0 1-1.64-3.32.78.78 0 0 1 .2-.32l.51-.38-7-5.75 1.94 9.26a.21.21 0 0 1-.42 0 8.58 8.58 0 0 1-1.57-2.61c-.13-.44-2.23-6.81-2.32-7.08l-.09-.28-3.07-.6-.25 3.63-2.08 1.79a1 1 0 0 1 .21-.69c.69-.95 1.23-1.83 1.25-1.87l.13-.21-1.31-3.23-2.53-.9c-.43-.12-1-.31-1-.31h-.12l-7.46 1.26-.07.33a64.39 64.39 0 0 0-1.26 6.6c.07.59 1.69 2.62 3 4.23l.08.09h.11a12.67 12.67 0 0 1 2.84 1.54c.13.15.28.29.43.44a1.32 1.32 0 0 1 .64 1 2.08 2.08 0 0 1-.4.69 5.51 5.51 0 0 0-1.79-.61c-1-.16-3-.54-3.55-.66-.8-.85-5.43-5.76-6.19-6.47s-3.82-4-5.2-5.64a38.11 38.11 0 0 1-3.72-5c-.12-.64-2.39-6-4.58-7.7s-10.21-5.19-12.11-5.57h-.2c-6.79-1.36-11.12-2.33-12.87-2.88-2.92-.93-14.5-5.84-17.55-8-3.47-2.45-13.16-10.32-14.45-13.53s-1.34-9.38-1.35-9.53c-.18-1.05-1.84-10.32-2.93-11.68a1.32 1.32 0 0 0-1-.58c-1 0-1.37 1.37-1.48 1.79v.16a34.27 34.27 0 0 1 0 4.54c-.18 1.82-1.81 9.06-2 9.62a8.3 8.3 0 0 0-.33.94v.19l.09.17a16.73 16.73 0 0 1 .94 2 10.87 10.87 0 0 1-.82 1.78l-.05.15c0 .23-1.07 5.72-1.32 7.52-.16 1.15-.49 3.28-.8 5.21-.17 1.11-.34 2.16-.45 2.91a22 22 0 0 0 .09 5.81 1.27 1.27 0 0 1 .07.56 1.75 1.75 0 0 0 0 .77l.09.38h.77v.18l.27.19.77.55v.17a3.78 3.78 0 0 0 .34 1.1c.19.36 1.62 2 4.54 5.25l1.67 1.85a2.42 2.42 0 0 1 .06.33c.09.56.19 1.26.79 1.33h.21a9 9 0 0 0 .11 2l.09.33a100.36 100.36 0 0 1 2.53 11.4 87.94 87.94 0 0 1 .75 13.84 98.2 98.2 0 0 1-1.45 15.29c-.71 3.54-2.71 9.83-3.46 12.19l-.47 1.46.9.41c.38-.63.8-1.31 1.13-1.84v.59a23.84 23.84 0 0 0 1.57 5.54c.45.74 3.16 4.14 4.36 4.76 1 .51 3.87.67 6.28.76h.14c.35 0 .61 0 .8.06a3.34 3.34 0 0 1-.55.71 44.59 44.59 0 0 1-4.56 3.83 13.24 13.24 0 0 1-4.12.64 8.56 8.56 0 0 0-1.66.31v1l1.2.24-.11.07h-.19a.8.8 0 0 0-.74.36 4.51 4.51 0 0 0-.22 2.69c.2.68.91 2.4 1.21 3.13a10.72 10.72 0 0 1-2 1.43c-.56.26-3.93 2.67-4.07 3.21-.06.25 0 .42.7 1.78.16.32.38.75.45.91 0 .78-.3 5.21-.46 5.66a29.27 29.27 0 0 1-4 2.84 15.29 15.29 0 0 1-3.74 1.31h-.69a8.17 8.17 0 0 0-1.49.15c-1.39.25-4.39 1-5.33 1.26-.52.14-3.3.26-5 .31l-3.5-1.94.43 1.23c.08.23.16.47.21.66a2.89 2.89 0 0 1-1.2-.61 6.66 6.66 0 0 1-1-1l-.36-.57-.44.51a1.62 1.62 0 0 0 0 2.1 9.7 9.7 0 0 0 1.29 1.24c-3.26 0-3.79-.24-3.83-.26-.66-.42-7.69-3.77-8.78-4.29l-5.92-5.3c-1-.84-10.08-8.24-12-8.88l-.54-.18a9.24 9.24 0 0 0-3-.68 5.12 5.12 0 0 0-1.78.33c-.5.18-1 .38-1.5.58a11.72 11.72 0 0 1-3.16 1 18.07 18.07 0 0 1-4-.33 2.7 2.7 0 0 1 .43-.47c.64-.6 2-1.88 2.21-2.13a27 27 0 0 1 4.16-2c1.29-.36 4.28-.82 4.31-.82l-.05-1s-2.8-.13-3.7 0a10.11 10.11 0 0 0-1.18.19 1.1 1.1 0 0 1 .52-.37c.51-.18 1.52-.46 2.41-.71a16.1 16.1 0 0 0 2.17-.67c.29-.17 2.42-1.51 2.42-1.51l-.47-.88a30.21 30.21 0 0 1-2.89 1.14c-.17 0-.59.09-1.13.16-2.32.28-4.67.61-5.65 1.24a9.56 9.56 0 0 0-3 3.26 12.55 12.55 0 0 1-2.36 2.75 2.65 2.65 0 0 1-1.69.84 8 8 0 0 0-3.19 1.55c-.83.61-2.51 2.05-3.59 3a22.54 22.54 0 0 1 .93-3.84 33.37 33.37 0 0 1 2.1-4.24 28.3 28.3 0 0 0 1.87-3.67c.21-.63.54-1.94.55-2l-.93-.34a32.62 32.62 0 0 1-1.88 3.31l-.23.34c-.83 1.21-2.54 3.71-3.29 4.17a13.81 13.81 0 0 0-3.47 3.54 36.29 36.29 0 0 0-1.37 5.49c-.13.64-.24 1.16-.3 1.42a12.13 12.13 0 0 1-1.6 3.47l-.11.16.06-.12c.15-.32.29-.57.41-.79a5.07 5.07 0 0 0 .76-2.69 66.23 66.23 0 0 0 .12-6.86c-.12-1.38-.12-3.23-.12-3.25h-1s-.29 4.69-.58 6.14c-.07.39-.17 1-.28 1.63a28.29 28.29 0 0 1-1 4.85 16.14 16.14 0 0 1-3.18 2.53l-1 .66-.67.46a1.21 1.21 0 0 1-.3-.06.73.73 0 0 0-.73-.66h-.22a1.05 1.05 0 0 0-.62.45 1.34 1.34 0 0 1-.3.3 5.51 5.51 0 0 1-1.87.51 1.25 1.25 0 0 1-.27-.45l-.11-.3h-.32s-2.37-.17-3.66-.29l-.77-.11a3.37 3.37 0 0 0 .62-.19 28.5 28.5 0 0 0 4.92-4 8.23 8.23 0 0 0 .92-1.18l-.73-.65a15 15 0 0 1-1.91 1.17 5 5 0 0 0 .39-.39c.52-.6 2.09-3.39 2.26-3.71l-.77-.62-2.29 2a48.52 48.52 0 0 1-5.08 3.75 4.14 4.14 0 0 1-1.19.23h-.23.07c.07 0 6.88-4.61 7.55-5.59a4.55 4.55 0 0 0 .5-1.07 3 3 0 0 1 .54-1c.16-.17.42-.47.73-.83a34.84 34.84 0 0 1 2.85-3c.58-.5 1.09-.88 1.51-1.19a3.88 3.88 0 0 0 .87-.75 11.87 11.87 0 0 0 .61-1.34c.24-.57.53-1.26.84-1.94a39 39 0 0 0 1.47-4.4l-.95-.31a21.75 21.75 0 0 1-1.8 3.82 15.18 15.18 0 0 1-1.35 1.3 18.67 18.67 0 0 0-2.83 2.96c-.36.54-.8 1.24-1.25 1.95a31.34 31.34 0 0 1-2.11 3.05 18.3 18.3 0 0 1-5.71 3.29 25.32 25.32 0 0 1-8 1.93l-.94.09c-2 .2-3.66.37-4.93.48l2.23-.25v-1a28.43 28.43 0 0 0-4.9-.21c-1.8.16-4 .71-4.82 1.78-.52.69-1.67 2.33-2.05 2.88l-1.74.23.15-.22a1.66 1.66 0 0 1 .3-.51c.39-.42 2.87-2.83 3.44-3.28a9.69 9.69 0 0 1 3.94-1.56h5.12a4.16 4.16 0 0 0 .8 0c.3-.07 6.74-2.14 7.66-2.61a50.74 50.74 0 0 0 4.19-3l.88-.66c1.12-.83 2.63-2.09 2.69-2.14l.48-.41-.5-.38a3.73 3.73 0 0 0-.83-.4 3.17 3.17 0 0 0-2.07 0c.16-.21.31-.4.44-.56.64-.77 1.09-1.25 1.25-1.41l.56-.24 6.9-5.32-.55-.83c-.1.06-2.23 1.23-3.44 2l.29-1.07-.9.33a4.87 4.87 0 0 0-1.79 1.22 8.78 8.78 0 0 1-1.81 1.78 2.88 2.88 0 0 1-1.36-.06c-.72-.12-1.07-.2-1.08-.21l-.31-.07-.2.25a7.48 7.48 0 0 1-1.26 1.28 2.83 2.83 0 0 1-1.79.5h-1.16l1.13-.62a29.25 29.25 0 0 0 3.82-3 .57.57 0 0 0 .17-.65l-.19-.33h-.23c1.15-1.21 2.2-2.25 2.39-2.37s.3-.07.49-.11a5.87 5.87 0 0 0 1.25-.35c.65-.29 5.74-3.64 6.29-4.06l1-.76a37.6 37.6 0 0 0 3.39-2.64c.14-.18.52-.92 1.37-2.6.32-.63.59-1.17.66-1.29a11.19 11.19 0 0 1 .84-.94c.34-.37.76-.8 1.2-1.3a56 56 0 0 0 3.76-6.33c.49-.73 4.84-7.18 5.12-7.68s1.39-4 1.46-4.28.25-1.86.61-5c.08-.73.14-1.26.15-1.34s.1-.91.21-2c.19-1.85.47-4.65.54-5.18.14-.93.27-1.64.34-1.86l.49-.46.87-.82a1.93 1.93 0 0 0 .22-1.41 4.54 4.54 0 0 1 0-.59v-.22c.16-.79.24-1.18.27-1.39s.47-.3.71-.43a.87.87 0 0 0 .75.65c1.12 0 1.15-2.76 1.15-3.08a4.84 4.84 0 0 0-.18-1.43 1.08 1.08 0 0 0-1-.89 2.05 2.05 0 0 0-1.47 1l-.16-.26a.68.68 0 0 0-.52-.33 13.85 13.85 0 0 1 .43-1.93 8.94 8.94 0 0 0 .42-2.06 22.86 22.86 0 0 0-.42-3 12.32 12.32 0 0 1-.34-3.46 19.91 19.91 0 0 0-.41-3.69c0-.31-.08-.54-.09-.61a2.23 2.23 0 0 0-.15-.54 2.09 2.09 0 0 1-.18-.8v-1.69h1.31l-.07-.56a22.61 22.61 0 0 1-.05-5.1 24.46 24.46 0 0 1 2.52-6.06c.34-.52.77-1.14.77-1.14l.19-.27-.12-.38a6.79 6.79 0 0 0-.58-.78 1.67 1.67 0 0 1 .09-1.09c.07-.15.52-.82.82-1.27a4.76 4.76 0 0 0 .76-1.25 4.11 4.11 0 0 0 0-.78v-1.44l.91-.24c2.53-.64 2.86-.75 2.86-1.25v-.42l-.37-.1a28.27 28.27 0 0 0-3.53-.23l-3.53-4h-.11a4.45 4.45 0 0 1-.83-.47c-.52-.37-4.72-4.12-5.1-4.66a48 48 0 0 1-2.49-5.48 32.17 32.17 0 0 1-.89-5 31 31 0 0 1 .88-5c.05-.1.13-.35.79-2.72.47-1.68 1.06-3.77 1.23-4.24.32-.9 1.23-5.13 1.27-5.31v-.06l-.22-5.25-.39-12.31c0-.28-.28-6.81-.38-7.52-.06-.46-.26-1.23-.54-2.3-.17-.63-.36-1.37-.56-2.18-.51-2.07-.13-5.77.35-8.32a10.39 10.39 0 0 1 2.28-4.73l.19-.25c.55-.73 1.75-1 4.37-1.47l1.56-.31a32.34 32.34 0 0 1 4.89-.64h.15a20.34 20.34 0 0 0 4.83-1.79c.36-.23 1-.55 1.62-.87 1.58-.8 1.87-1 2-1.3l.05-.24-.12-.19a12.83 12.83 0 0 0-1.25-1.22c-.54-.5-1.34-1.25-1.43-1.36s-.76-1.44-.94-1.87-1-1.88-2.83-5l-.14-.24a46.1 46.1 0 0 0-3.83-4.2l-.54-.54-.28.71a1.34 1.34 0 0 0 .14 1.31l.21.22a29.34 29.34 0 0 1 4.37 5.56c.06.11.6 1.18 1.15 2.28 1.2 2.38 1.27 2.51 1.3 2.56s.62.8 1.11 1.42a14.86 14.86 0 0 1-5 2.13h-.18a70.26 70.26 0 0 0-7.13.89 10.68 10.68 0 0 0-7.73 5.91c-2.41 4.67-2.43 11.25-.06 16.4.08 1.14.4 10.92.55 15.5-2.87-1-14.2-5.21-23.3-8.69-2.31-.88-4.44-1.74-6.22-2.46-3.26-1.32-4.73-1.9-5.33-1.9h-.14c-2 0-11.85-2.25-13.43-2.61-4.06-7.17-4.67-7.36-4.87-7.42a9.8 9.8 0 0 0-1.74-.22c-.58 0-1.17-.09-1.68-.17s-1.07-.21-1.61-.33a14.82 14.82 0 0 0-1.76-.34 12.1 12.1 0 0 0-3.22.73l-.9.27-.33.09c-1.07.27-1.41.39-1.57.66A2 2 0 0 0 11 80a4.6 4.6 0 0 0-2.26.13c-.44.14-.47.16-2.06 1.33L3.79 83.6C.2 86.07.1 86.37 0 86.54c-.19.69.57 1.46 1 1.84a2.56 2.56 0 0 0 2.36.17A14.62 14.62 0 0 0 8.17 86a6.13 6.13 0 0 1 1.48.25 8.26 8.26 0 0 0 2.22.33 37 37 0 0 0 3.29 2.31c-1.53-.11-3.23-.24-3.47-.29a3 3 0 0 0-1.7 0c-.05 0-5.59 3.26-5.7 3.79L4 93.1c-1.2 2.83-1.23 3-1.19 3.24A2.12 2.12 0 0 0 5 97.82c.75 0 2.1-.32 3-2.42a13.86 13.86 0 0 0 4-1.26 26.62 26.62 0 0 1 4.64 1.72 6.76 6.76 0 0 1 .57.88 48.5 48.5 0 0 1-3.67 3.6 17.69 17.69 0 0 0-2.21 3.34v.1c-.07 1.18-.31 2.62-.5 3.78-.14.84-.26 1.57-.29 2.05v.16l.08.13a2.29 2.29 0 0 0 1.95.86 2.15 2.15 0 0 0 .86-.16c.85-.39 1.27-1.76 1.65-3.25.06-.22.12-.48.16-.6l.29-.23A8.7 8.7 0 0 0 17.1 105a25.84 25.84 0 0 0 3-1.83c.64-.43 1.42-.94 1.71-1.1a10.89 10.89 0 0 0 2.78.4 13.37 13.37 0 0 0 4.18 1c.36 0 .78.1 1 .16-.14.37-.47 1-.65 1.33s-.31.59-.38.76a27.14 27.14 0 0 1-1.5 2.26c-.37.53-.74 1.06-1 1.48a3.7 3.7 0 0 0-.24 3.86 3.63 3.63 0 0 0 2.81 1.72 1.26 1.26 0 0 0 .47-.08 9.68 9.68 0 0 0 2.46-2 24.67 24.67 0 0 1 2.93-2.5 3.73 3.73 0 0 0 1.57-1.46c.09-.17.23-.49.4-.87a9.09 9.09 0 0 1 .94-1.85c.83-.83 2.87-2.41 4.6-2.41a2.43 2.43 0 0 1 .62.08c10 2.68 29.39 17.93 31.25 19.56-2.68 13.33 7.9 19.95 9.5 21.43l2.89 3.21a15.33 15.33 0 0 1 .07 3.08 25.67 25.67 0 0 0-1.17 4.7v.07a3.82 3.82 0 0 1-.34 2 15.62 15.62 0 0 0-1.94 4c-.42 1.22-.71 3.42-1 4.23-.24-.32-.84-.85-.86-.37s-1 3.67-1.35 5.37v.22a16.48 16.48 0 0 0 .51 1.69c.15.67.42 9.81.56 15.78v.08l.05.1c.15.29.32.64.43.88a.92.92 0 0 0-.73.87 4.73 4.73 0 0 0 .89 1.63 12.86 12.86 0 0 1-.28 1.32 7.85 7.85 0 0 1-1.46.71s-.38.62-.55 3.53c-.26 4.35-1.24 14.52-1.5 15.32s-2.4 5.16-3.31 7l-.49 1c-.19.4-3.92 7.27-4.34 7.76s-2.47 3-2.55 3.09-1.7 3.46-1.76 3.57-9.94 7-9.94 7-2.67.75-2.94.92c-.42.26-4.68 5.79-4.68 5.79l-4.36 3.12s6.51.42 7.23-.19a14.84 14.84 0 0 0 1.11-1.06h1.5c-.73.92-2.13 3.49-2.48 4l-4.81 2.26c0 .32 4.75.1 5.13.07-1.1.78-3 2-3.31 2.1-.92.49-6.35 2.23-7.35 2.57-4 .25-8.67-2-14.33 5.83-.42.67-5.78 3-5.78 3l9.37-.83s1.51-3.11 2.94-3.21c.33-.09 12.31-.37 12.31-.37a4.15 4.15 0 0 0-.68 2.22 2.4 2.4 0 0 0 .23 1.78.73.73 0 0 0 .52.22h.14l7.84-1.64h2.57l-2.3 1.1-6.34 1.29a42.91 42.91 0 0 0 5.6 1.47c1.53.19 4.33.31 4.88.62.82 1.77 3.51.52 4-.1 1.37 1.41 5.93-3 6.23-3.18a14.86 14.86 0 0 1-3 3.95c9.23-2.59 8.6-13.79 8.82-14.14a37.46 37.46 0 0 1 3.12-2.92l.08-.07a8.81 8.81 0 0 0-.49 1.36 47.39 47.39 0 0 0-.92 5.84v1.22l1 .13a5.21 5.21 0 0 1 1.1-1.94 39.86 39.86 0 0 1 4.3-3.65 10.34 10.34 0 0 1 2.74-1.34 3.79 3.79 0 0 0 1.28-.5 1.21 1.21 0 0 0 .08 1.06 2 2 0 0 0 1.62.75h.25c.94.09 2.52.23 3.42.23a3.12 3.12 0 0 0 .63 0 14.75 14.75 0 0 0 1.57-.59 21.94 21.94 0 0 1 3.35-1.18 5.07 5.07 0 0 1 .59 0 8.21 8.21 0 0 1 3.59.68l7.88 5.79 6.66 5.54 2.84 2.69.12.08c1.45.71 8.69 4.28 9.29 4.47a12.89 12.89 0 0 0 2.74.12H134.05a3.6 3.6 0 0 1 1.13.28l.36.13.33.11.22-.28a.72.72 0 0 0 .14-.61 2.59 2.59 0 0 0-1.47-1.32 1 1 0 0 0 .16-.27 1.26 1.26 0 0 0 .08-.18l.87.6.14.1h.18c.51 0 5-.35 5.45-.41.19 0 .87-.2 2.06-.5s2.83-.7 3.18-.75a15.54 15.54 0 0 1 1.71-.14H148.89a22.48 22.48 0 0 0 4.69-1.58 45.09 45.09 0 0 0 4.17-3.09c.46-.52.74-4 .9-6.8V263.22a16.9 16.9 0 0 0-.88-2 19.69 19.69 0 0 1 2.45-2.07l.34-.2a29.54 29.54 0 0 0 3.27-2.05c.54-.5.11-1.41-1-3.37-.23-.42-.53-.94-.56-1a6.63 6.63 0 0 1 0-.88h.41l.16-.16a7.81 7.81 0 0 1 1.58-1.33l1-.25v-.36a8 8 0 0 0 1.66-.22 27.9 27.9 0 0 0 5-4 22.12 22.12 0 0 0 1.78-2.8l.38-.7s-7.25 0-9.06-.92a19.93 19.93 0 0 1-3.87-4.43 15.45 15.45 0 0 1-1.3-4.65c.23-4.09 1.94-10.95 2.3-12.79a136.38 136.38 0 0 0 1.6-14.11c.09-2.93-.54-13.22-.91-15.93-.24-1.68-1.25-5.57-2-8.41-.42-1.62-.79-3-.85-3.41a2.57 2.57 0 0 1 .12-1.6l.1-.28-.13-.22a1 1 0 0 0-.9-.37 1.13 1.13 0 0 0-.39 0 1.87 1.87 0 0 1-.08-.67v-.2l-.14-.15c-2.28-2.53-6-6.72-6.27-7.17a3.2 3.2 0 0 1-.26-1.08v-.27l-1.06-.64-.46-.73h-.15a1.69 1.69 0 0 0 0-.6 24.54 24.54 0 0 1-.12-5.39c.24-1.82 1.51-9.27 1.78-10.76.09-.53.21-1.27.33-2 .16-1 .36-2.25.4-2.4a17.2 17.2 0 0 0 .79-1.88 5.63 5.63 0 0 0-.43-2.18c-.11-.39-.26-.93-.27-1s.18-.74.33-1.27c.27-1 .61-2.15.75-3 .06-.37.2-.94.36-1.63a29.6 29.6 0 0 0 1.07-7.21c.21 1.12.66 3.43 1.07 5.52.33 1.7.65 3.3.67 3.47s.05.66.09 1.36c.09 1.54.24 3.88.41 4.9 0 .26.07.53.09.83a8.5 8.5 0 0 0 2.63 5.8 99.33 99.33 0 0 0 7.85 7.62c.88.66 6.92 4.53 8.32 5.37a85.86 85.86 0 0 0 8.58 4.35 104.45 104.45 0 0 0 10.1 3.15c1.43.34 3.14.67 4.66 1s2.75.53 3.49.72a49.71 49.71 0 0 1 6.2 2.13c1.56.71 6.12 3.11 6.84 3.5a30 30 0 0 1 2.38 3.58c.28.57.63 1.25 1 1.85s.71 1.34.76 1.5a35.46 35.46 0 0 0 3.45 5l.89.97c1.28 1.46 3 3.46 3.79 4.13.94.82 7.37 7.47 7.44 7.53l.1.1h.14c1.87.49 5 1.34 5.34 1.53a1.7 1.7 0 0 0 .75.17 1.37 1.37 0 0 0 1.5-1.15 2 2 0 0 1 .07-.31 2.83 2.83 0 0 0-1.24-3.4 12.71 12.71 0 0 0-3.29-1.7 38.26 38.26 0 0 1-2.39-3.44 30.68 30.68 0 0 1 1-5.27 48.2 48.2 0 0 1 6.24-1.3c.22 0 1.52.52 2.73 1l.71 1.87c-.51.55-1.54 1.79-1.45 2.82s.56 2.14 1.33 2.14c.2 0 .26 0 2.42-1.93l.88-.76c.29-.17.32-.4.49-2.12 0-.3.06-.67.1-.95l.64.21c.79 2.22 2 5.62 2.06 5.89 0 .07 0 .18.05.31a4.17 4.17 0 0 0 .74 2.11l.28.34c.59.73 1.36 1.66 2.33 1.52a2 2 0 0 0 1.52-1.16l.06-.14-1.41-6.14 2.95 2.48a1.55 1.55 0 0 0 0 1.09l.12.28c1 2.34 1.52 3.43 1.93 3.75a2.17 2.17 0 0 0 1.13.49 2.29 2.29 0 0 0 1.33-.74l.17-.17-.6-6.36-.07-.11-2-3 .22.15a16 16 0 0 0 2 1.27 2.75 2.75 0 0 1 .55.45 3.51 3.51 0 0 0 .91.69c.55.24 2.85.87 3.75.47a2.85 2.85 0 0 0 1.46-1.33c.05-.31.02-.33-1.27-1.52zm-182 68.38a16 16 0 0 1 2-2.57A6.93 6.93 0 0 1 92 252a5.34 5.34 0 0 0-.33 1.16c-.62.41-2.39 1.56-2.81 1.88zm-42.09 11.18a25.29 25.29 0 0 0 4.34-1c.88-.33 2.25-1 3.44-1.54-1.05.8-3.1 2.92-4.94 3.74-3.79 1.7-2.84-1.2-2.84-1.2zm-.84 2.89h.49l-.51.1v-.14zm-27-186.45L16.41 82a4.72 4.72 0 0 0 .89-.13 11.63 11.63 0 0 0 1.31 1.02z" fill="#13161a"/><g data-name="RIGHT BLOODY ARM"><path d="M85 104.14c-6.11-1-15-4.15-23.11-7.33-9.57-3.77-18-7.52-19.14-7.54-2.17 0-9.37-1.76-11.37-2.15a32.62 32.62 0 0 1-3.19-.77s-2.09-3.49-2.72-4.69-2.12-3-2.33-2.92a37.18 37.18 0 0 1-5.43-.94c-.87-.25-3.66.74-5 1.08s-.17 2.25.79 2.19c0 0 2.89.38 3.63 0s2.57 1.69 3.29 1.79.08 1.84.08 1.84-8.37-3.52-9.71-3.76a2.34 2.34 0 0 0-2.18.47c-.4.27-3 2.19-3.83 2.61s-3.06 2.27-3.49 2.49.18 1.83 1.71 1.19 3.9-1.56 4.66-2.3 3.54.58 4.23.22 4.54 3 4.78 3.1-.24 1.34-.24 1.34a32.17 32.17 0 0 1-4.93-.53c-1-.36-2 .49-2.42.79s-3.22 2.09-3.6 2.28S4.2 95 3.9 95.84s1.47 1.39 2.38.31a5.64 5.64 0 0 0 1.07-1.57s3.36-.67 4.07-1.24 5.48 1.72 5.69 1.74a9.9 9.9 0 0 1 1.24 1.85 44.44 44.44 0 0 1-3.65 3.72c-.58.3-1.94 2.49-2.36 3s-.25 2.22-.5 3.43-.44 2.25-.44 2.25a1.2 1.2 0 0 0 2.13-.44 9.13 9.13 0 0 0 .73-2.61 8.53 8.53 0 0 0 2.24-1.77c.57-.84 4.36-2.75 4.7-3.26s2.25.44 3.05.3 3.33 1.51 6.51 1.12c.86.23-.31 1.85-.7 2.79s-3.23 4.65-3.29 5.83 1.35 3.88 3.24 2.08a31.76 31.76 0 0 1 4.35-3.68c.69-.36 1.25-1.73 1.74-3.13s3.65-3.08 4.62-3.55c6.36-3.15 43.52 27 45.52 27s-.16-25.69-1.24-25.87z" fill="#912e29"/><path d="M12.35 85.12c.71.63 4.81 3.27 4.81 3.27l1.33-2.12-4.59-2-3.79-.27-2.93-.25L2 86.95s.17.81 1.37.18 3.55-2 4-2.35a16.12 16.12 0 0 0 4.98.34z" fill="#5b1b18"/><path d="M35.32 93.93a72.41 72.41 0 0 1-7.16-4c-.4-.26-3.16-1.09-3.59-.87s-1.87-.1-1.29-.41 1.63-1.65 1.22-2.41-2.69-5.24-3.39-5.45c0 0-3.2-1.23-3.73-1s-5.13 0-5 .2-.21.11 1.11.7 4.27-.21 4.38 0 2.37 1.32 2.92 2.25a2.75 2.75 0 0 1 .14 2.08s1 3.19.7 3.41-2.11 1.77-1.72 2.65-.19 3.27-.54 2.71a8.44 8.44 0 0 0-1.5-1.58 1.6 1.6 0 0 1 .13.59l-7-1.28-4.87 2.34-1.41 2.2a2.5 2.5 0 0 0 2.17-1.78 35.44 35.44 0 0 0 5-1.67 10.85 10.85 0 0 0 2.34 1l3.7 1.11a21.47 21.47 0 0 1 1.68 2.12c.09.3.23 2.38-.8 3.12s-3.59 1.26-3.55 1.58-2.08 3.51-1.91 3.83-1.16 4-1.16 4 .25.38 1-.84.45-2.52.67-2.62 2-1.21 2.12-2c0-.27-.67-2.09-.4-1.7a2.2 2.2 0 0 0 2.06.34c.53-.28 3.52-2.17 3.43-2.46s-.28-2.22-.28-2.22l.87 2.79s2.19.91 2.82.41.53-2.16.78-2.62.32 2.29 1.78 3.09 3.35-.38 3.62-.35a1.52 1.52 0 0 1 1.22 1.76c-.22 1.13-2.72 5.3-2.72 5.3s.37.55.71.27c1.46-1.24 3.33-5.37 3.1-5.8s.86-4.21.86-4.21 1.49-2.48 2-2.36 2.17-1.01-.51-2.22z" fill="#5b1b18"/></g><path d="M59.71 95.8s20.21 7.41 20.56 7.41-1.14 14.21-1.27 14.66-4.15-2.82-4.06-3.44.44-1.33.44-1.68a.69.69 0 0 0-.44-.53 2.26 2.26 0 0 1-.79.35c-.26 0-.35.18-.35-.62s.44.09 0-1.14-.88-1.24-.88-1.24l-.44-.71-.24-.86-.44-.88-.35-.18-.53 1.15s.62.44.18.62a1.78 1.78 0 0 1-1.15-.17 9.59 9.59 0 0 1-.35-1.5.8.8 0 0 0-.53-.8.78.78 0 0 0-.88.35 1.32 1.32 0 0 1-1-.53c-.18-.44.53-.71-.18-1.06a3.23 3.23 0 0 0-1.68-.27 4.8 4.8 0 0 1-1.59 0c-.44-.18.09.27-1.85-.88a11.12 11.12 0 0 0-4.89-1.69c-1.06 0-.62 1 .71 1.41s2 2.12.53 1.32a11.48 11.48 0 0 1-4.68-4c-1-1.41-1.24.18-1.76 0s.44-1.41 1.15-1.41 1.5.09 1.77.09a1.08 1.08 0 0 1 1.15 0 5 5 0 0 0 1.5.35s-.53-.35-2-1.23a7.78 7.78 0 0 1-2.56-2.12.72.72 0 0 0-.43-.57A11.2 11.2 0 0 0 51 94.92c-.35-.27-1.06 0-1.23-.44s.62.09-.18-.44-1.77-1.68-.53-1.15a4.09 4.09 0 0 0 2 .53c.53 0 1.24.35.53 0s3.27.8 3.27.8z" fill="#bfa599" data-name="RIGHT ARM"/><g fill="#d5c7c0"><path d="M176.65 155.64s-.01-.02 0 0zM176.31 155.76a2.8 2.8 0 0 0-.29.13l.33-.13zM178 155.59a1.23 1.23 0 0 0-1.32 0 3.37 3.37 0 0 1 .73.32c1.31.68 1.49.38.59-.32zM176.65 155.64l-.29.13.49.05a1 1 0 0 1-.2-.18z"/><path d="M171.84 153.12a3.31 3.31 0 0 1 1.23 1.12 5.73 5.73 0 0 0 1.71 1.65 1.41 1.41 0 0 0 1.24 0 2.8 2.8 0 0 1 .29-.13l.29-.13a1.23 1.23 0 0 1 1.32 0c.88.7.71 1-.59.35a3.37 3.37 0 0 0-.73-.32 1 1 0 0 0 .19.18l-.49-.05-.33.13a.52.52 0 0 0-.3.28.53.53 0 0 0 .35.3 1.3 1.3 0 0 1 .65.17c.23.18.41.35 1.47 1.24s1.18.18 1.18.18h1.06a4 4 0 0 1 1.62.91 1.66 1.66 0 0 0 1.35.65c.76.12 1-.35 2.29-.35s2.53-1.23 2.29-.24-.12 1.59.94 2.65.59-1.12.59-1.12a1.07 1.07 0 0 1 .59.35 1 1 0 0 1 0 .59 2.62 2.62 0 0 0 .59 1 2.07 2.07 0 0 0 1.24.41.51.51 0 0 0 .59-.53c-.06-.23 0 0-.18-.12a1.82 1.82 0 0 0-.53-.18v-.35l.12-.24a1.68 1.68 0 0 0 .59.36 6 6 0 0 0 .94-.3l-.23-.82.12-.47v-.35c0-.35 0 0-.18-.35a1.07 1.07 0 0 1-.35-.59.73.73 0 0 1 .12-.3l.94-1.05 1.94 2.29a8.49 8.49 0 0 1-.76 2.24c-.3.17-.65.35-.65.35l.24 1.41.59.53a2 2 0 0 0 1-.18v-.23a2.82 2.82 0 0 1-.83-.35c-.18-.18.59 0 .88 0a.62.62 0 0 0 .47-.29l.82.77.83.65a.52.52 0 0 0 .35-.29 1.12 1.12 0 0 0-.23-.47l.23-.35h.29l.47.47v.53a2.47 2.47 0 0 0 1.53 1.35 11.17 11.17 0 0 0 5 .47c2.47-.18 1.77 0 4.06.88s.65.23 1.35.64.35.06.88.12h.41a5.72 5.72 0 0 0 1.12-.41c.59-.3.53 0 .77 0h1.06a1.58 1.58 0 0 0 .94-.36c.18-.24-.06-.24-.18-.53s0 0-.59 0 .35-.29.77-.29h.88s.65-.65.24-.77.94-1.12.12-1.12a1.42 1.42 0 0 0-1.41.47c-.47.47-.41.53-.94 1.06s-1.71 0-1.94 0-1.06-.18-1.59-.18-.29-.47 1-.53a9.2 9.2 0 0 1 1.53 0 1.78 1.78 0 0 0 .41-.65 2 2 0 0 0 .59-.82c0-.18-.41-.06-.71-.06a1 1 0 0 0-.47.71h-1.18l-.76-.06a1.24 1.24 0 0 1 .94-.35c.65 0 .35-.94.06-.94a9.49 9.49 0 0 0-1 .12 2.43 2.43 0 0 1-1 .24 4.2 4.2 0 0 0-1.35-.59c-.65 0-2.47.35-2.71.29a.73.73 0 0 1-.18-.65h-1.41a1.42 1.42 0 0 0-.94-.35c-.59 0-.23 0-.41-.47s-.06-.35-.35-.53a1.5 1.5 0 0 1 .64-.77c.29 0 .12.47.12.47a6.41 6.41 0 0 0 .65.65.48.48 0 0 0 .59 0s1-1.12.41-1.35a1.37 1.37 0 0 1-.76-.71 1.85 1.85 0 0 0-1.41-.88 1.41 1.41 0 0 1-1.24-.7s.18-2.83 1.42-1.59a10.64 10.64 0 0 0 2.82 1.94 32.53 32.53 0 0 1 4.59-.53 5.59 5.59 0 0 0 .88-.08c-6.86-5.1-15.66-11.43-24-15.35-2.91-1.38-6.4-4.52-6.93-7.59s-6.18-25.94-5.62-31.57c.74-3.4 0-11.85-6.8-19.67-2.63-3-10.36-6.35-12-6.47s-8-2.35-10-4.24-12.24-6.47-13.54-6.71-3.41-.94-3.41-2.12-.82-6-1.06-9.54a97.69 97.69 0 0 0-1.88-10.71S101 60.14 99.34 60.73s-6.24 3.77-7.41 3.65a13.24 13.24 0 0 0-9.65.94c-5.53 2.47-6.59 12.57-4.47 18 1.27 3.28.35 11.92 1.53 27.86-.41 2.71-1.12 4.68-2.71 9.65-5.35 16.77 10.71 21.89 10.71 21.89s1.66 7.92 1.66 9.81-3.3 4.24-4.94 9.77-1.88 13.18-1.88 16 2.12 12.48 1.41 16-3.88 17.18-5.06 25.78-3.18 36.84-3.18 36.84l.12-.35c-.12 1.3-1.3 16.36-1.3 17.18a37.41 37.41 0 0 1-1 6.33 58.6 58.6 0 0 1-3.62 6.85c-3.06 5.3 4.24 11.65 5.18 11.65s5.41 3.77 6.36 4.59a62.68 62.68 0 0 1 7.06 9.65c1.29 2.59 8.59 22.48 9.42 24.84s6.71 19.18 7.3 20.36 0 5.06-.24 6.59-4.12 5.77-4.59 7.41a31.47 31.47 0 0 1-3.18 7.92c-1.77 2.82-2.12 4.41-4.24 7.74 1.77-.46 5.53-7.53 4.24-5.06s-2.35 4.83-3.18 6.35-2.47 1.29-2.82 1.65a5.52 5.52 0 0 1-.71.59 4.43 4.43 0 0 1-.94 1.06c-.59.47-4.59 2.71-4.59 2.71a3.39 3.39 0 0 1-1.06 1.42c-.47.12-3.53 1.29-3.53 1.77a2.82 2.82 0 0 0 1.88 2.71 7.43 7.43 0 0 0 5.33.44 6.83 6.83 0 0 0 3.21.16s.9.65 3.44.15a7 7 0 0 0 3.29.2s3.29.5 5.14-.65a6.57 6.57 0 0 1 1.45-1.2 28.84 28.84 0 0 1 5.24-1.75c1.13-.33 4.81-3.71 6.57-8.18s4-10 4.83-11.18 4-6.71 5.65-7.53 2.47-3.06 2.47-4.59-3.18-6.71-3.18-6.71l-2.12-2s-1.88-2.12-2.59-2.94-1.18-.47-1.18-.47a7.33 7.33 0 0 0 .35-2.35 5.84 5.84 0 0 0-.82-2.94c-.24-.35-1.77-1.18-1.88-2.71s-2.47-8.39-3.18-12.83c-.54-3.35-.47-11.53-.47-17.42s-9.06-19.42-9.65-20.24-2.47-6.71-1.77-7.18 4-4.59 9.53-9.41 32.6-32.48 42.37-46.25 12.36-46.13.59-62c-1.67-2.26-5.88-5.77-5.88-7.88s1.88-22.6 3.65-26.48 2.23-17.44 3.3-15.06c2.59 5.77 2.94 14.95 3.65 19.54.45 2.91 4.55 7.29 9.94 11.51l1.07-.09a3.36 3.36 0 0 1 1.58.28z"/></g><path d="M85.8 36.84a56.84 56.84 0 0 0 1.53 8.24c.59 1.53 5.31 3.77 8.53 11.68.79 1.95 4.42 6 6.89 6.68s9.18-.35 10.71-.59 6.35-4.62 7.41-5.33 4.24-4.56 5.42-5.62a10.09 10.09 0 0 0 2.46-5.6 21.19 21.19 0 0 0-1.05-4.64s3.07.17 3.3-1.36 1.52-10.17.82-12.06-2-3.65-3.77-3.06a4.46 4.46 0 0 1-3.06 0s-8.94-12.24-10.94-14.12C105.34-1.06 78.16 5.41 85.8 36.84z" fill="#d5c7c0"/><g data-name="BODY LOWLIGHTS" fill="#826451"><path d="M143.65 128.11s6.35-4.94 7.41-6.36 4.12-5.88 4.3-7.83 2 .23 2 .23.66 2.42-.93 3.83-3.05 1.35-3.58 7-2.6 12.22-3.83 12.75-5.37-9.62-5.37-9.62zM113.66 62.87c-4.11 1.56-9.73-1.47-14.41-2.9.84.74 3 10.18 2.32 13.48s6.71 13.47 7.29 14.77.24 4.53 1.18 4.53a9.2 9.2 0 0 0 6.59-3.53c2.25-3.27 9.41-.71 27.78-12.71 3.31-2.17-11.26-7.73-14.59-9.3-1.18-1.88-1.47-6.21-2.24-11.65 1.06-6.59.76-7.68.76-7.68s-5.64 11.55-14.68 14.99zM73.22 279.62c.5-1 5.11-9.4 6.87-12.4s9.53-16.6 13.59-19.42-11.83-1.59-11.83-1.59l-6.1 8.28s-2.86 23.46-2.53 25.13z"/></g><g data-name="BLOOD ON LEG"><path d="M98.19 257.06c-.55.29-2.65 1.32-2.38 1.41s.53.27.35.53a1.44 1.44 0 0 1-.79.35 1.91 1.91 0 0 1 .27.71.54.54 0 0 1-.44.35s0 .18-.53 0a1.72 1.72 0 0 0-1.15.26c-.44.09-1.06 1.06-1.68 1.06s-1.5.09-1.5.09a.66.66 0 0 0 .79.53c.26 0 2.3-.44 2.3-.44h1c.44 0 .09.62 1 .09s.18-.62.88-.53-.53 1.06-.53 1.06-.27.09-1.06.27-.62.7-.62.7 1.41-.53 1.41 0 1.24.44 1.33.18.71-1.68.71-1.68a.89.89 0 0 1 .17-.88c.36-.62-.53-.18.36-.62s.35.09.88-.44l.53-.53a.49.49 0 0 0 .18.62c.35.36 0 1.15 1.06 1.15a1.27 1.27 0 0 1 1.24 1.06l-.09.88.71.09s1 .62 0 .8a1.34 1.34 0 0 0-1.15.79s-.53 1-.18 1a.9.9 0 0 0 .88-.18c.53-.35.62 1.5 1 2s-.53 1-.26 1.15a1.75 1.75 0 0 0 1 0s.88-1.32 1.5-1.32.44.53.71.62-.27.88-.27.88a1.48 1.48 0 0 1 .27.79c0 .44 1 2.47.18 3s-2.21.79-1.86 1.24l.35.44a1.63 1.63 0 0 0-.35.88c-.09.62-.18 1.23-.44 1.23a.86.86 0 0 0-.88 0c-.8.26-.8 1-.53 1s.62-.18.62.53a.83.83 0 0 0 .88.7h.44s.62-.8.62 0 .18 2-1.15 2.74-1.77 1.32-1.24 1.77.44-.17.53.44 1 .35 1 .35a1.12 1.12 0 0 1 1.06-1.06c1 0 .53.71 1 0a3.62 3.62 0 0 0 .71-1.67c0-.45-.44-1 .35-1.24a2.23 2.23 0 0 1 1.41-.36c1.06 0 .09.44 1.5-.53s1.59-.88 1.94-.88h.79l.35-.53s.09.17 1.33-1a62.21 62.21 0 0 0 5.33-5.43s-18.84-16-21.84-14.42z" fill="#5b1b18"/><path d="M99.51 261.92v-.35l-.71-.44s0-.27-.27.44l-.26.71.53.35zM99.08 264.88c-.57.13-.93.62-.57.88s1 .35 1.1 0-.26-.13-.53-.22.31-.4 0-.79 0 .13 0 .13zM100.53 267.92c-.28.33-.13.79.13.79a.44.44 0 0 0 .4-.48c0-.23-.27-.62-.53-.31zM100.71 263.38c-.1.15 0 .44.31.18s.13-.8-.31-.18zM105 268.19s-.75.44-.35.53.53 0 .57-.18-.14-.09-.22-.35zM104 270.7c-.62.1.22 1 .44.57s-.75-.93-.13-1.15-.84-.66-1.19-.09a1.14 1.14 0 0 0 0 1.32c.1.01 1.38-.73.88-.65zM99.69 270.48c-.22.1.27 1 .53.66s.36-1.06-.53-.66z" fill="#912e29"/></g><path d="M127.3 51.8s.85 14.71 1.52 15.71 4.67 2.08 7.17 3a51.92 51.92 0 0 1 9.17 5c.75.75 5.5 2.5 7.42 3.08s8.58 3.25 9.67 4.17 8 5.33 9.42 10.92 1 9.08.58 10.33 2.33 14.58 3.25 18.5 4 16.58 4.75 17.75 5.58 3.92 8.17 5.67 18.58 11.58 19.42 11.92 1.92-.33 2.25-.33-4.42-3.67-6.5-5.08-12.25-7.5-14.42-8.67-6.17-4.17-6.67-5.17-4.08-16.33-4.5-18-2.58-14.08-2.67-15.42.42-8.25-.83-11.25-5.83-13.44-20.83-17.25c-2.33-.58-6.08-1.83-6.5-2.5s-6.75-4.67-9-5.42-7.75-3.08-8-3.83-1.87-14.38-1.87-14.38z" fill="#ece4e1"/><path d="M130.38 128.31c-.59.47-7.6 5-11.19 3.67-1.68-.64-4.65-6.79-4.65-6.08s2.41 7.8 2.76 7.8-10.66 4-12.19 4-3.65-.12-3.65-1.18 3.37-8 3.18-11.18c-.57 1.09-3.56 9.71-7.81 8.57-1.65-.48-9.34-12.46-9.34-12.46s.22 5.06.34 6a11.3 11.3 0 0 0 3 4.54c.94.74 3.24 2.14 3.78 3-.62.28-1.06.45-1.06.45l9.06 7.88s24.48-4.83 25.66-6.71 2.73-8.77 2.11-8.3z" fill="#826451"/><path d="M74.83 259l1.26-1.17s-1.35 7.74-1.08 8.55c2.88-2.79 7.29-7.29 8.82-6.84a2.24 2.24 0 0 1 1.62-.18c5.31 3.42 11.09-.8 12.51-.81s5.58 2.34 7.38 3.87 13.59 11.34 13.59 11.34l1.8-1.17-19-25.19-19.38 1.07-8.24 7.12z" fill="#231f20"/><path d="M113.51 121.87c-.79-.52 4.61 8 5.61 8.2s3 1 5.17-.5 9.65-11.12 9.83-16.5a37.44 37.44 0 0 0-.67-6.83c-.5-1.5-6 1.83-6.83 4.33s-2.17 6.17-4.67 8.67-7.95 2.96-8.44 2.63zM87.77 113.16s.59 6.6 1.75 8.77 6.14 8.85 8.72 8.67c.74-.05 0-2.67 1.33-5.67s-3.17-6.17-6-11-2.83-4.33-3.33-7.5-1.36-5.17-1.86-3-.61 9.73-.61 9.73z" fill="#ece4e1"/><path d="M45.85 279.92a47.24 47.24 0 0 1-8.65 3.71 28 28 0 0 1-7.73 0 24.35 24.35 0 0 0-4.92-.71 14.8 14.8 0 0 1 4.35-1s-4.41-.71-7.41.53-5.47-1.24-6-1.24-3.88-.35-4.59-.35a49.78 49.78 0 0 1 6.53-1.06 6.17 6.17 0 0 0 2.82-1.06c1.06-.53 5.12.53 5.12.53a41.41 41.41 0 0 0 6.36.35c.66-.07-1.8-1.65-3.51-1.61-.29-.08-4.25-1.37-4.25-1.37s4.58-.37 5.82 0a21.59 21.59 0 0 0 5.83 1.06c2.29 0 6 .35 6.71 0s2.47-1.06 2.83-1.77c.12 3-4.6 3.76-5.13 3.76 2.12 2.05 5.57.15 5.82.23zM24.13 293.52c.78-.13-3.66 3-4.41 4.06a7.92 7.92 0 0 0-1.59 3.89c3.54-4.54 6.53-7.24 9.89-8.12s6.18-3.53 6.53-4.59-5.12 3.18-6 3.35-.18-3-.18-3-8.3 3.53-9.36 4.24a8.51 8.51 0 0 0-2.29 3c-.35.65 4.28-2.35 7.41-2.83zM26.25 298.11a43.49 43.49 0 0 0-3.18 4.24 18.82 18.82 0 0 1 3.18-2.47c1.75-1.07 3.89-2.88 4.06-3.88s-4.06 2.11-4.06 2.11zM37.48 270.28a13.47 13.47 0 0 0-3.88.53 18.85 18.85 0 0 0-2.12 1.06 14.73 14.73 0 0 0 4.59.88c2.29 0 2.12-2.47 4.41-3s-3 .53-3 .53z" fill="#e8d574"/><path d="M101.19 68.16c-.1-.56-.16-.91-.34-1.65a2.93 2.93 0 0 1-1.34 3c-1.76 1.24-6.18 10.42-8.3 12.71S86.28 96 85 97.92s-3.88 7.06-4.77 8.83a27.3 27.3 0 0 0-1.76 6.35c0 .53-3.57 11.65-3.53 13.6.23 12.65 8.83 15.88 9.88 17.3s3.18 3.7 3.18 3.7a12.42 12.42 0 0 0 0 2.83c.18 1.59-.18.88-1.41 3.18s2.3 3.88 3 4.41 1.41 2.47 2.65 2.82-1.24-.7 3.35 1.24c0 0 3.88 4.06 6.18 4.06s-1.59 1.59-1.59 1.59 3.36 2.12 4.94 2.3l4.94.53a28.58 28.58 0 0 0 3.89 1.06h-6.53c-2.12 0-7.41-3.18-8.65-3.53a24.14 24.14 0 0 0-4.59-1.06h-4.73a76.88 76.88 0 0 0 9.18 2.65c.88 0 3.18 1.59 4.77 1.59s-6.36-1.06-8.83-1.59a60.85 60.85 0 0 0-7.42-1.06c-.88 0-2.83.35-3.53 0a14 14 0 0 0-1.94-.71s-.71 3.18-.35 3.88a5.93 5.93 0 0 1 .53 3.18v6.18s-.35 6.88.71 8.3-.71 1.24.17 2.12.18 1.59 0 2.64-1.06 1.06-1.76 1.42-1.24 14.3-1.76 16.95-5.83 11.83-6.53 13.24a28.51 28.51 0 0 1-4.06 5.82c-1.06.89-2.12 3.53-2.65 4.42s-4.59 3.53-5.47 4.23-4.95 3.53-6.36 3.53-4.59 4.41-4.59 4.41a7.58 7.58 0 0 1 2.12-1.41c1.24-.53-2.12 2.47-3.18 3.18S45 252 45 252h3.71c1.59 0 2.82-1.94 2.82-1.94s2.18.59 2.77.23 1.88-2 3.06-2.71 0 1.06-1.18 1.88 2.35-1.29 3.41-2 2.56-1.46 2.56-1.46-7.06 5.53-7.65 5.65-3.77 4.71-3.77 4.71-1.65.59-2.24.82 2.82.12 4-1.77 2.59-.59 3.06-.59-2.94 2.36-3.29 2.71-4.26 3.04-4.26 3.04-6.83 2.59-8 2.59h-5.16a8.57 8.57 0 0 0-4.12 1.41c-.59.59-4.24 3.65-4.24 4.35s-1.77.94-2.24 1.18 4.71-.47 4.71-.47 2.12-3.65 3.29-4.12a5 5 0 0 1 2.59-.59c1.29 0 4.12.12 5.65.12s-2.12 0-4.36.47a7.8 7.8 0 0 0-2.82.94s2.94-.12 5.06-.12 6.47-.71 7.89-.71 8.83-2.59 10.83-4.24 3.41-5.53 6.36-8.12a11.63 11.63 0 0 0 4-5.88c.59-1.65-2 6.59-3.06 7.29s-6 5.3-6.36 6.95-7.77 6.47-8.83 6.94-3.53.47-3.76.12a2.77 2.77 0 0 1 0-1.41s-.94 2.47-.35 2.71 5.41-1.06 6.36-1.06 4.47-2.59 4.47-2.59 2.94-3.06 3.53-3.53-2.24 3.64-2.24 3.64l-2.83 2.36s3.88-1.18 5.18-2.47-4.59 4.82-6 4.94-4 .47-4 .47a51 51 0 0 0 5.41.94c1.77.12 2.94.12 2.94.12l.24.71a1.23 1.23 0 0 0 1.06.24 2.77 2.77 0 0 0 2.12-1.06c.12-.35.47-.23.47.12s.82.35.82.35 4.47-2.59 5.3-4 1.88-9.42 1.88-12.59.71 9.3-.24 11.42a17 17 0 0 1-2.71 4.59c-.59.47.71-.12 1.65-.94a12.69 12.69 0 0 0 3.07-5.64c.47-2.24.82-5.53 1.76-6.71a13.91 13.91 0 0 1 2.94-2.94c1.06-.71 4.35-5.3 5.06-6.83s.35-1.18.12-1.77-.12-.47.24.59-1.29 3.88-3.06 6.83a25 25 0 0 0-2.62 8.46c0 .59 3.06-2.94 4.59-3.88a9.89 9.89 0 0 1 3.65-1.65c.71 0 3.06-2 4.35-4.35s3.06-2.95 6.59-3.42a13.54 13.54 0 0 0 5.41-1.65c1.06-.47-1.53.82-1.88 1.18s-4.24.71-5.65 2.24 0 .82.47.71 5.06-.23 6.35-.23-4.23-.12-6.35.94l-3.77 1.88a31.27 31.27 0 0 0-2.94 2.94c-1.06 1.29 2.47 1.29 3.88 1.29s5.3-2.12 7.65-2 5.88 2.83 7.53 4 12.48 10.12 12.83 10.83 7.89 4.12 8.95 4.36a45.58 45.58 0 0 0 5.77.47c1.18 0 .23.36-1.29-1.06s-1.3-1.77-1.3-2.12 1.53 1.53 2.71 1.64.35-1.29.35-1.29l2.24 1.06h4.36c1.18 0 4.24-1.53 7.18-1.53s9.06-2.94 9.54-5.06a30.4 30.4 0 0 0 .47-5.53 15.24 15.24 0 0 0-1.06-2.35 7.34 7.34 0 0 1 3.18-2.83 9.48 9.48 0 0 0 2.94-1.88s-1.06-2.94-1.29-3.3-.35-2.36.35-2.47a3.57 3.57 0 0 0 1.53-1.06l-2.12-.35a16.63 16.63 0 0 1 2.94-.23 4.56 4.56 0 0 0 3.65-1.53c1.18-1.06 4.12-2.94 4.71-4.36s-6 .24-8-1.41-4.24-4.12-4.82-6.71a22.41 22.41 0 0 1-.71-4.82c0-.82-.23-.47-1.65 2.12s1.53-4.36 2.35-7.06a96.1 96.1 0 0 0 2.31-12.38c.12-1.88.59-9.65.59-13.65s-1.65-15.3-2.71-18.24-.83-3.3-.83-4-.12-1.05-.59-1.05-.59-1.42-.59-1.42-.59-.82-1.29-1.65-4.82-4.95-5.06-5.41a4.13 4.13 0 0 1-.24-1.41l-1.06-.59s.47-.59-.35-.59 0-.12-.47-1.53a11.81 11.81 0 0 1-.24-3.89c0-.59 1.29-6.47 1.41-8.94a63.3 63.3 0 0 1 1.41-7.89 6.88 6.88 0 0 0 .94-1.88 6.4 6.4 0 0 0-.23-1.29s-2.12-4.24-2.71-5.65-4.94-8.36-5.29-9.06-6-8.83-6.36-10.35-2.24-19.89-2.24-22.48-2.47-15.42-2.94-17.54-2-8.8-2-9.09c-.33-.93-.69-.75-.69-.75l-.21.51s2.89 17.1 3.71 19.93 1.18 15.06 1.41 18.36.24 10.59.24 10.59-4 9.65-4.95 11.65-12.14 11.88-15.66 12.35-8.59 1.29-9.53 1.41-1.65.7-2.47.12-4.23-.59-5.41-1.41a23.22 23.22 0 0 1-2.94-2.82 27.62 27.62 0 0 0-3.65-4.6 5.12 5.12 0 0 1-1.88-4.35c0-1.06-3.53-7.3-3.3-14.48s.82-12.83.82-13.89 3.88-11.53 5.42-14 7.76-13.65 8.47-14.36a3.45 3.45 0 0 0 .66-1.28z" fill="#e8d574" data-name="DRESS"/><g fill="#13161a"><path d="M108 42.13s-.47-1.47-1.06-1.47a2.5 2.5 0 0 0-1.88 1.71c-.06.77.47-.06.88-.06s1.64.69 2.06-.18zM102.87 43.72a4.48 4.48 0 0 0-1.77-.53c-.65.06-1 .88-.65 1.18s1.71.12 2.18.12 1.01-.3.24-.77z"/></g><g data-name="LEFT EYE"><path d="M103.34 29.72s.06-2.41.47-2.94.47-.65.82-1.12 4.88-2.06 6.71-2.18 6.95 1 7.65 1.59.59 1.88.88 2.59a2.73 2.73 0 0 1 .41 1.24c0 .47-.47.7-1.18 1.06l-4.3 2.12c-.94.47-6.83 2.24-8.53.82s-3.05-2.54-2.93-3.18z" fill="#826451"/><path d="M104.52 26.13s-.35-1.53.12-2.12 4.65-2.36 5.35-3a3.88 3.88 0 0 1 2.41-.47l2.6.82s-2.77-.59-4.18.18a22.86 22.86 0 0 0-3.65 3.06c-.36.29-1.95 1.59-2.65 1.53z" fill="#826451"/><path d="M117.82 27.16c-.41 0-2-1.82-2.82-2.06a15.16 15.16 0 0 0-5.24.17 5 5 0 0 0-2.32 1.53 9.8 9.8 0 0 0-.94 1.62 7.19 7.19 0 0 1-.59 1.06c-.18.25-.07.36.12.39a1.26 1.26 0 0 1-.35.28 1.86 1.86 0 0 0 .88-.22.71.71 0 0 1 .47.22.55.55 0 0 0 .7.41 6.52 6.52 0 0 1 1.91.38 22.9 22.9 0 0 0 5.15-.7c.38-.15 2.09-1.88 2.5-2.09a8.8 8.8 0 0 0 1.06-.71.6.6 0 0 0-.53-.28z" fill="#13161a"/><path d="M107.81 30.34s-.38.21-.5 0a1.23 1.23 0 0 1 .29-.71c.06-.18.38-.88.47-1.12a3.87 3.87 0 0 1 1.79-1.88c1-.33 3.32-.71 4.21 0s1.74 1.37 1.74 1.37a2 2 0 0 1-.38 1 5.83 5.83 0 0 1-.73.94 15.28 15.28 0 0 1-4.94.76c-.65.01-1.48-.39-1.95-.36z" fill="#ece4e1"/><circle cx="111.68" cy="28.47" r="2.22" fill="#e8d574"/><circle cx="111.83" cy="28.53" r=".78" fill="#13161a"/><circle cx="111.89" cy="27.55" r=".66" fill="#e9dcd7"/></g><g data-name="RIGHT EYE"><path d="M98.63 32.13S99 36.6 99 37.9a9.91 9.91 0 0 1 0 2.41c-.18.29-.18-2.06-.76-3.82s-.83.12-.83.12a14.54 14.54 0 0 1-1.12 2.77 16.82 16.82 0 0 1-4 2.77 10.75 10.75 0 0 1-4.12 0c-.71-.29-2.36-2.94-2.71-3.36a23.62 23.62 0 0 1-1.35-6.12c.18-.59 4.65-4.06 6-4.24s4.94-.47 5.59.41A2.79 2.79 0 0 0 97.34 30c.24.06-.94-1.65-1.94-2l-1-.35s3.82-.58 4.23 4.48z" fill="#826451"/><path d="M97.13 34.13a1.26 1.26 0 0 1 .52-.69c.22-.15.38-.38 0-.51a7.26 7.26 0 0 1-1.09-.52 9.42 9.42 0 0 0-1.7-.78 5 5 0 0 0-2.78.09 15.19 15.19 0 0 0-4.38 2.87c-.51.65-.8 3-1.12 3.31a.61.61 0 0 0-.27.55 8.91 8.91 0 0 0 1.27 0c.46-.07 2.85.37 3.25.27a22.8 22.8 0 0 0 4.62-2.39 6.59 6.59 0 0 1 1.34-1.41.55.55 0 0 0 .34-.79z" fill="#13161a"/><path d="M96.59 34.73s.43-.05.42-.26a1.22 1.22 0 0 0-.65-.41c-.15-.11-.82-.5-1-.64a3.88 3.88 0 0 0-2.55-.51c-1 .3-3.12 1.34-3.46 2.4s-.62 2.13-.62 2.13a2 2 0 0 0 .91.62 5.55 5.55 0 0 0 1.14.35 15.22 15.22 0 0 0 4.48-2.22c.49-.41.92-1.19 1.33-1.46z" fill="#ece4e1"/><circle cx="92.34" cy="35.43" r="2.22" transform="rotate(-35.19 92.358 35.43)" fill="#e8d574"/><circle cx="92.26" cy="35.56" r=".78" transform="rotate(-35.2 92.268 35.567)" fill="#13161a"/><circle cx="92.79" cy="35.59" r=".5" transform="rotate(-35.25 92.79 35.596)" fill="#e9dcd7"/></g><g data-name="BLOODY CHIN" fill="#912e29"><path d="M101.72 51.14l-.7.44v.53l.08.53a2 2 0 0 1-.88-.53c-.26-.35 0-.46-.26-.35s-.12 0 0 .55.29.43.29.43l-.09.44.18.44a.57.57 0 0 1-.8-.36 1.19 1.19 0 0 0-.62-.79 4.88 4.88 0 0 1 .09.71c0 .27-.35.62 0 .7l.33.12.53.62-.62.26-.88-.35-.26-.18-.44-.88-.17 1.41a.86.86 0 0 0 .79.62c.62 0 .26.26.88.44s-1.41 0-1.15.35-1.02-.56-1.02-.12-.93-1.41-1-1.17l.09-.27-.26-1.32s0 2.47.09 2.91.35 1 .53 1.59 3 2.06 3.47 2.59 2 2.8 3.29 3.06 6.45 0 8.83-.05 7.27-4.1 9.3-6.22c1.2-1.26 2.83-3.51 4.24-5.35.24-.31.46-.57.66-.86 0 0 .37-.32.38-.36.28-.61.46-.26.5-.3a1.74 1.74 0 0 0 .48-1.26 3.89 3.89 0 0 0-.62-2l.44.09s.27-.88-.88-.79-2.83.18-1.94-.09.71-.7 1.32-.7 1.85-.44 1-.71-2.91-.44-1.41-1-1.33-.26-1.85 1.5-1.94 2.38-1.5 1.32 1-2.12.53-2-2.21 2.29-2.21 1.24 0-2 .71-2a2.36 2.36 0 0 0 1.59-.26c.53-.35 0-.88 0-.88s-.44-.53-.79-.27a3.73 3.73 0 0 1-1.06.44s.18-.88-.53-.62a1.29 1.29 0 0 0-.88 1.5c.18.53.35.26.18 1a5.88 5.88 0 0 1-.53 1.32v.62a.28.28 0 0 0 .26.35c.35.09.71-.44 1 .27s0 1.06.26 1.23-.71.44-1 .35.88-.62-.62-.53-1.77-.26-1.77-1 .53-.44 0-.71-.88-.35-1.24.18a1.25 1.25 0 0 1-1 .53l-.88-.09v.71l.35.44-.41.68-1.3.88s-.06 2.59-.06 3.91a2.56 2.56 0 0 1-1.33 2l-.53 1.06s-.44.44.09.62a.82.82 0 0 1 .62.79c.09.35.26.62-.27.71s-.79-.35-1.32-.09-1.15 1.15-1.24.71-.44-.18-.09-1a.88.88 0 0 0-.18-1.15l-.71.35a.48.48 0 0 0-.44.26c-.09.27-.71 1.15-1 .62s-.62-1.68.09-1.68 1.24.18 1.24-.27a1 1 0 0 0-.88-.8c-.27 0-1.15.09-1.15.09a1.66 1.66 0 0 0-.53 1.06c.09.44.26 1.15-.09 1.23a1.55 1.55 0 0 1-.8-.09l-.7-1.41-.44-.26a.47.47 0 0 1-.26-.62.36.36 0 0 0-.26-.53h-.44v-.3a1 1 0 0 0 .18-.53c0-.36-1.38-.63-1.38-.63s.51-.07.86-1.3.63-1.77-.08-1.77z"/><path d="M109.49 57.84c.31.31.53.09.53-.44a.47.47 0 0 0-.44-.53 3.31 3.31 0 0 0-.09.97zM110.11 54.67c-.2.5-.7.36-.09.53s.62.18.62-.18-.36-.79-.53-.35zM104.46 56.13c-.27.31-.62.31-.27.31s.44 0 .44-.22-.17-.09-.17-.09zM103.44 55.15c-.39 0-.79.53-.13.53s1.32-.31 1.72-.31a4.93 4.93 0 0 0-1.59-.22zM108.69 56a.18.18 0 0 0 .31.13.48.48 0 0 0 .27-.18c.09-.09-.4-.22-.58.05zM117.87 47.69c.12.19.09.13.75.26s-.49-.62-.4-1.06a3.35 3.35 0 0 0 .22-1.28 2.41 2.41 0 0 0-.57 2.08zM123 44.43c0 .35.18.13.44-.18a8.09 8.09 0 0 1 .75-.44c.4-.35.48-.79 0-.79a1.45 1.45 0 0 0-1.19 1.23v.18zM126 42.66c.09.39 0 1.06.35 1.1s.31-.39.31-.39.09 0-.27-.62-.44-.71-.62-1.1-.31-.36-.31 0a4.12 4.12 0 0 0 .54 1.01zM96.56 54.36c.45.6 0 .53.14-.18s.79-1 .13-1.24-.66 0-.66.22a2.66 2.66 0 0 0 .39 1.2zM99.3 52.06a6 6 0 0 0 .18-.79c0-.36-.49-.22-.66 0l-.3.38a.9.9 0 0 1-.19.19c-.13.09 0-.39-.13.09s.09.48.09.48a.28.28 0 0 0 .13-.31c-.01-.26.83-.48.88-.04zM102.87 49.9c.18 0 .31 0 .31-.18v-.48a1.54 1.54 0 0 0-.48 0c-.23.04.17.66.17.66z"/></g><path d="M101.46 54s2.35-3.59 2.82-4.53 1 .18 1.83-.18a2.15 2.15 0 0 0 .7-1.12c.29-.53 3.18-.12 4.53.06s2.41.41 2.65.41.94-.06.12.65-3.41 3.88-3.77 4.12-3.71 1.71-4.65 1.47a21.67 21.67 0 0 0-3.06-.82c-.88-.06-1.47.26-1.17-.06z" fill="#5b1b18"/><path d="M107.52 51.37a19.36 19.36 0 0 1-2.12.35 13.42 13.42 0 0 0-2.59 1.28 1.54 1.54 0 0 0 1.71-.23c.94-.71.24.06.18.41s1-1.24 1.47-1.24-.47.71-.47 1.18 1.35-.82 1.82-1a5.16 5.16 0 0 1 2.06.23c.59.12.12-.32.24-1s1.47-1 2.29-1.21a2.86 2.86 0 0 0 1.41-.88s-4.06.82-4.29.82-1.42 1.18-1.71 1.29z" fill="#912e29"/><path d="M106.87 52.7a4.4 4.4 0 0 0-.53 1.12c0 .32.83-.88 1-1.15s-.47.03-.47.03zM107.9 52.43a1.37 1.37 0 0 0 0 .59c.1.21.44-.02 0-.59zM110.55 50.81a4.7 4.7 0 0 1 1.29-.21 4 4 0 0 1-1.32.41c-.38.13.03-.2.03-.2z" fill="#912e29"/><path d="M99.6 61.49s-4.9 2.65-6 2.82-5 .21-7 .5-5.75 1.37-7.12 4.58a21.47 21.47 0 0 0-1.54 9.88 38.41 38.41 0 0 0 1.62 5.33l.13 8.71.21 13.79 1.58-2.92V84.26s-1.92-4.33-1.83-6.17.67-8.25 2.75-9.75 6.25-1.75 7.67-1.75 3.58.33 4.92-.33 5.25-2.26 5.25-2.26z" fill="#ece4e1"/><g data-name="DRESS LOWLIGHTS" fill="#826451"><path d="M125.47 139.93a33.64 33.64 0 0 0 5.88 3.06c2.24.71 14.24-.94 15.54-1.64a5.88 5.88 0 0 0 2.36-2.95c0-.35 1.23 1.29 0 2.18-1.88 1.39 2.79.31.43 1.76 0 0-3 2.65-2.46 2.42s-1.19 1.79-3.06 2.12c-2.86.5-7.3.59-10-.82a64.26 64.26 0 0 1-6.24-3.53 20.64 20.64 0 0 1-2.45-2.6zM125.23 142.64c-.34-.08-4.35-.35-6.59-.35s7.3 1.3 8.95 2.12.23-1.18-2.36-1.77zM146.66 167.35s-3.89 5.3-5.42 6.12 2.35.12 3.77-.71 4.82-.94 4.24-.24-2.71 3.06-3.06 3.53 2.82-.71 3.88-2.36a6 6 0 0 0 1.18-3.53c0-.82-1.65-.59-2.24-.47s1.3-2 1.3-2.71-3.29 3.3-5.18 4.47 3.06-3.93 3.53-6.23-1.4.98-2 2.13zM138.88 181.24c-1.41 1.18-26.72 10.47-31.07 11.18s-8.94-1.42-9.65-1.77-6.36 0-6.36 0 13.42 6.47 16.48 7.41 16.95-3.41 21.3-6-3.53 1.77-7.88 1.89-5.65-1.65-7.41-1.65 2-2.12 3.88-2.12 19.77-6.36 22.83-8.59 5.41-3.77 5.41-3.77z"/><path d="M99.57 202.9s12.83 3.18 14.71 3.29 23.42-6 25-6.71 6.24-4.47 7.53-5.42 6.35-5.65 7.06-6.94a4.53 4.53 0 0 1 2.59-1.77s-14.47 15.06-15.65 15.54-17.89 7.53-21.54 9.65-13.06 0-14.36-.24 2.12 4.36 4.36 4.36-6.36 1.88-8 .35-6.78-11.86-9-13.63S85.1 196 85 195.6s13.4 6.47 14.57 7.3z"/><path d="M113.81 212.9a89.5 89.5 0 0 0 10.42-2.62 20.51 20.51 0 0 0 2.17-.91c4-2 7.3-2.94 6.47-1.76s-17.65 12.59-18.48 13.06-18.71 1.89-22 1.3 6.47-1.06 10.71-1.06S100 219 97.58 219c1.86-1 11.06-.71 17.53-3.89s6.71-2.24 7.3-2.82-11.89 2.26-8.6.61zM147 231.85c-.41 1.39-2.83 14.71-2.83 20.6a59.6 59.6 0 0 0 .35 8.71c.12.47-.35 2.12-.82-3.18s-1.65-11.18-1.06-16.24 5.65-14.12 7.53-17.3-2.76 6.02-3.17 7.41zM140.4 247.31c-1 3.88-1 11-1 14.08s-1.29-6.82-.71-11.65a39.15 39.15 0 0 1 1.61-7.74s1.07 1.42.1 5.31zM125.92 263.69c.19.43 3.68 8 5.53 9.06-.93.24-6.11-5.26-6.93-7.26s-1.43-2.18.08-4.75c1.89-3.2.85 1.89 1.32 2.95z"/><path d="M128.17 265.27a4.92 4.92 0 0 0 2.47 2c.59 0-2.35-2.23-2.47-4.23s-.12-3.3-.12-3.3-.7 3.77.12 5.53zM93.1 235.38c1.17-.11 3.77-1.29 5.88-2.47s-3.41.59-5.41.59a39.47 39.47 0 0 1-4-.23s2.24 2.23 3.53 2.11zM94.75 236.68s4.94-1.41 6.47-1.77-6.83 3.53-9.3 3.06 2.83-1.29 2.83-1.29z"/></g><g data-name="LEFT BLOODY ARM"><path d="M270.75 188.24a20 20 0 0 1-2.37-2.25c-.48-.63-7.05-4.81-7.05-4.81s-10.38-4.31-10.67-4.57-2.52-2.77-3.07-2.79-12.8-4.24-13.17-4.23-6.58-2.27-6.58-2.27a27.79 27.79 0 0 0-2.57-1.36c-.25 0-4.14-1.71-4.28-2.11h-.12c-2.12-1.47-4.94-3.62-8.19-6a5.59 5.59 0 0 1-.88.08 32.53 32.53 0 0 0-4.59.53 10.64 10.64 0 0 1-2.82-1.94c-1.24-1.24-1.42 1.59-1.42 1.59a1.41 1.41 0 0 0 1.24.7 1.85 1.85 0 0 1 1.41.88 1.37 1.37 0 0 0 .76.71c.59.23-.41 1.35-.41 1.35a.48.48 0 0 1-.59 0 6.41 6.41 0 0 1-.65-.65s.18-.47-.12-.47a1.5 1.5 0 0 0-.64.77c.29.18.17.06.35.53s-.18.47.41.47a1.42 1.42 0 0 1 .94.35h1.41a.73.73 0 0 0 .18.65c.23.06 2.06-.29 2.71-.29a4.2 4.2 0 0 1 1.35.59 2.43 2.43 0 0 0 1-.24 9.49 9.49 0 0 1 1-.12c.29 0 .59.94-.06.94a1.24 1.24 0 0 0-.94.35l.76.06h1.18a1 1 0 0 1 .47-.71c.29 0 .71-.12.71.06a2 2 0 0 1-.59.82 1.78 1.78 0 0 1-.41.65 9.2 9.2 0 0 0-1.53 0c-1.29.06-1.53.53-1 .53s1.36.18 1.59.18 1.41.53 1.94 0 .47-.59.94-1.06a1.42 1.42 0 0 1 1.41-.47c.82 0-.53 1-.12 1.12s-.24.77-.24.77h-.88c-.41 0-1.35.29-.77.29s.47-.29.59 0 .35.29.18.53a1.58 1.58 0 0 1-.94.36h-1.06c-.24 0-.18-.3-.77 0a5.72 5.72 0 0 1-1.12.41h-.41c-.53-.06-.18.29-.88-.12s.94.24-1.35-.64-1.59-1.06-4.06-.88a11.17 11.17 0 0 1-5-.47 2.47 2.47 0 0 1-1.53-1.35v-.53l-.47-.47h-.24l-.23.35a1.12 1.12 0 0 1 .23.47.52.52 0 0 1-.35.29l-.83-.65-.82-.77a.62.62 0 0 1-.47.29c-.29 0-1.06-.18-.88 0a2.82 2.82 0 0 0 .83.35v.23a2 2 0 0 1-1 .18l-.59-.53-.24-1.41s.35-.18.65-.35a8.49 8.49 0 0 0 .76-2.24l-1.94-2.29-.94 1.05a.73.73 0 0 0-.12.3 1.07 1.07 0 0 0 .35.59c.18.35.18 0 .18.35v.35l-.12.47.23.82a6 6 0 0 1-.94.3 1.68 1.68 0 0 1-.59-.36l-.12.24v.35a1.82 1.82 0 0 1 .53.18c.18.12.12-.12.18.12a.51.51 0 0 1-.59.53 2.07 2.07 0 0 1-1.24-.41 2.62 2.62 0 0 1-.59-1 1 1 0 0 0 0-.59 1.07 1.07 0 0 0-.59-.35s.47 2.18-.59 1.12-1.18-1.65-.94-2.65-1 .24-2.29.24-1.53.47-2.29.35A1.66 1.66 0 0 1 182 159a4 4 0 0 0-1.59-.94h-1.06s-.12.71-1.18-.18-1.24-1.06-1.47-1.24a1.3 1.3 0 0 0-.65-.17.53.53 0 0 1-.35-.3.52.52 0 0 1 .3-.28 1.41 1.41 0 0 1-1.24 0 5.73 5.73 0 0 1-1.71-1.65 3.31 3.31 0 0 0-1.23-1.12 3.36 3.36 0 0 0-1.59-.35l-1.07.09a87.76 87.76 0 0 0 10.19 6.85c5.68 3.26 18 6.74 21.79 7.27 6.24.88 12.56 4.21 16 6.14 1.5 2.11 4.1 5.79 4.4 7.4.38 2.06 7.06 9.5 7.89 10s7.17 7.47 7.47 7.41a32.45 32.45 0 0 1 3.91 1c1 .3 2.65 1.77 2.55-.71s-4.2-3.56-4.2-3.56-2.51-2.71-2.69-4 .81-6.19 1.34-6.29 6.35-1.66 7.39-1a15.13 15.13 0 0 0 2.64.86l1.1 2.72s.21-.12-1 1.14-.57 3.19 0 2.64 2.7-2.28 2.7-2.28l.42-3.37 1.85.49a37 37 0 0 1 2.1 6.39 6.62 6.62 0 0 0 1.5 2.95c1 1.38 1.88.19 1.84-.08s-1.1-5.5-1.54-7.67c1.29 1.12 5.12 3.75 5 4.26s-.7-.17.5 2.71 2.45 2.36 2.34 1.77-.52-5.76-.52-5.76-4.18-5.89-3.79-6c.22-.08 3.3 2.69 5.07 3.34 3.79 2.94 5.71 1.12 5.34.76z" fill="#912e29"/><path d="M252.87 185.52a14.68 14.68 0 0 1 3.92 1.55c.41 2 1.54 7.61 1.57 7.83s-.87 1.45-1.84.08A6.56 6.56 0 0 1 255 192a36.19 36.19 0 0 0-2.13-6.48zM251 185l-.43 3.46s-2.12 1.73-2.7 2.28-1.22-1.37 0-2.64 1-1.14 1-1.14l-1.13-2.79z" fill="#13161a"/></g><path d="M127.78 25.72a3.69 3.69 0 0 1 1.92.21c.38.38 1.88 2.58 1.88 3.25s-.21 2.75-.21 2.75l-.58-1a4.69 4.69 0 0 0 0-2 7.93 7.93 0 0 0-1.25-2.21 4.93 4.93 0 0 0-1.29.5z" fill="#ece4e1"/><path d="M163.38 59.76c-2.53-1.45-8.77-1.85-13.86-2.15-6.55-10.29-19.83-27.59-21-30.1-1.25-2.33-.42-2.32-.42-2.32a27.56 27.56 0 0 0-2.11-8.51C124 12.1 117.52 4.76 113.07 1.51s-16.25-.36-17.81.36A15 15 0 0 0 90.81 6c-.12.48-4.33 2.41-5.18 3S80 17.52 80 23.17c0 .29 0 .66.06 1.08-4.39 1.89-9.38 3.09-11 3-2.65-.12-3.85-1-3.61 1.32s2.65 1.93 2 1.81-1.56-1.2-1.08-2 1.56.72 5.9.12a55.87 55.87 0 0 0 8-2c0 .32.1.65.15 1s-.07.7-.11 1.05a18.65 18.65 0 0 1-2.52 1.79c-2.41 1.32-9.87 3-12.27 4.81a8.89 8.89 0 0 0-2.89 3.37c.36-.72 3.61-3.13 6.62-4.21 1.95-.7 6.73-2 10.79-3.62a26.68 26.68 0 0 1-2.42 8c-2.16 4.24-10.62 19.75-15.7 23s-12.16 7.7-14.44 9.75-6.38 11.31-2.29 15.64 11.44 2.53 11.44 2.53h-3.37c-2.77 0-7.82-3.61-7.82-4.81s2-10.47 6.14-12.64S72.63 56 75.76 53.14c2.27-2.1 5.87-8 7.68-11.07 2.43 10.23 5.66 21.35 8.09 25 4.46 6.74 7.95 24.55 6.14 27.8s-5 2.91-5.78 1.92c-.63-.81 3.25 6.74 5.78 1.69s.72-14.2.72-17.93S92.25 61.09 91 56.76a82.09 82.09 0 0 1-1.88-9.64 4.9 4.9 0 0 1-1.84-3.24c-.6-3.13-.6-5.9-.84-6.62s-1.14-5.89-1.63-7.54a1.75 1.75 0 0 0 .47-.29c.88-.8 3.27-2.12 4.06-2.74 1.06-1.23 2.21-5.82 2-7.59a25.47 25.47 0 0 1 .4-4.53c.55-1.61.9-2.73.93-2.83 1.22-.82 9.89 5.36 13.36 6.63 2.36.87 8.41 2.89 12.46 4.31 5.44 4.77 10.13 24.94 12 27.59s9 7.58 10.23 7.58c.33 0 1.73.08 3.68.22 4.58 7.11 9.13 14.15 10.65 16.14 3 4 1.45 14.32-1.08 21.18s-6 9-7 9.63-3.73 7.1-3.61 10.59 6.38 4.58 7.94 4.58-6.86-1.45-5.9-6.38 11.79-7.58 12.76-11.31 1.21-15.77 1.21-18.17-3.13-13.6-7-21.67a45.28 45.28 0 0 0-2.34-4.12 80.65 80.65 0 0 1 11.36 1.59c4 1.2 4.69 2.41 5.29 4.09s.91-2.05-3.3-4.46zm-73-37.58a10.25 10.25 0 0 1-5.23 5.76v-.07l.32-.28c1.37-1.27 4.58-5.45 4.67-7.54a8 8 0 0 1 .2 2.13zM92.56 12l.05-.12a.27.27 0 0 1 .11-.12zm49.76 44.9c-2.41-1-10.59-11.56-12.76-15-1.6-2.58-3.85-10.79-5.89-15.88 2.32 3.68 7.36 12 10 15.64 1.61 2.24 5.87 8.86 10.22 15.6a7.22 7.22 0 0 1-1.57-.38z" fill="#13161a"/><path d="M124.64 144.64c-3.06-.94-19.77-1.18-20.83-1.18S90 141.94 90 141.94a10.77 10.77 0 0 1 4.24-1.42c3.18-.59 4.12.3 6.36.24a30.17 30.17 0 0 1-4.24-2.59 46.42 46.42 0 0 1-4.59 1.41c-1.29.24-1.33 2.2-5.71 1.49a13.2 13.2 0 0 1-5.43-2.28s2.68 4 5.68 4.44.31.84.31.84c-1-.21 3 2.73 4.25 2.39.78-.21 5.12-.76 7.93-1.15 3-.19 6.13-.34 7.8-.44 3.8-.23 21.1.71 18.04-.23z" fill="#826451"/><path d="M94 143.35c1.71.13 3.12.92 6.54.88s7.92-.42 8.54-.33a53.62 53.62 0 0 1-5.92.63c-.62 0-9.75-.12-10-.08s-3.25-.83-5-1.08-3.16-.73-2.16-.77 8 .75 8 .75z" fill="#826451"/><path d="M96.95 58.43s2.7 1.9 3 2.1S102 63.1 103 63.27a82 82 0 0 0 9.51.16 24.93 24.93 0 0 0 6.5-4.16c2.56-2.31 7.54-8.71 7.71-8.88a21.54 21.54 0 0 0 1.33-2 10.71 10.71 0 0 0 .46-3.29 21.19 21.19 0 0 1 .46-3.67s1.46 0 1.75-.75a25.27 25.27 0 0 0 .63-3.17s.42-4.92.42-6.25a12.3 12.3 0 0 0 0-2.62c-.17-.58-1.33-2.87-2-3.17a2.75 2.75 0 0 0-2 0 .33.33 0 0 1-.05-.43c.41-.42 1.78-.68 2.89.85a8.05 8.05 0 0 1 1.58 3.83c0 1.42-.25 5.58-.25 5.58s-.67 5.5-1.12 6a5.16 5.16 0 0 1-1.5.83s-.33 6.6-.41 6.73a6.71 6.71 0 0 1-.85 2.11c-.58.71-5.62 7.35-9.34 9.7-3 1.9-5 3.23-6 3.46-2.23.51-9.21.13-9.92-.12a17.27 17.27 0 0 1-3.17-2.75 2.81 2.81 0 0 0-1.42-.46l-1.75-2.37z" fill="#13161a"/><path d="M99 39.47s.21 3.5.21 4a6.15 6.15 0 0 0 .92 1.83s2-.33 2.83-.5a2.34 2.34 0 0 0 1.08-.37l1.21.21s-1 .42-1.17.54-3.71.54-4.12.92-.79-1.21-.79-1.21a6.81 6.81 0 0 1-.62-1.12c0-.17-.17-5.71-.25-7s.58-1.21.58-1.21z" fill="#826451"/><path d="M87.61 42.76s.5 2.81 1.06 3.06a6 6 0 0 1 2.06 2c.69 1 4.56 6.81 4.56 6.81l-.12-1.19s-3.75-6.06-3.87-6.31-1.81-1.37-2.3-1.8a1.54 1.54 0 0 1-.19-1.81c.37-.25 1.81.06 2-.06a22.83 22.83 0 0 0-3.2-.7z" fill="#ece4e1"/><path d="M99.49 45.64s.94 2.44 1.31 2.19.75-.87 1.19-1.25a12.86 12.86 0 0 1 2.12-1.58c.25 0-4.62.64-4.62.64z" fill="#826451"/><path d="M114.1 277.37l-9.28 7.9s-3.67 3.17-3.83 3.5a23.49 23.49 0 0 0 1.17 6.25c.58 1.25 3.58 6.58 4.5 8.08s4.17 7.08 4.92 9.92a41.26 41.26 0 0 1 .83 9.67c-.08 2 .08 10.92 1 14s3.25 10.92 3.25 11.17a12.68 12.68 0 0 0 1.67 2.42c.33.33.25 3.5.33 3.83a6.91 6.91 0 0 1 0 1.33 5.28 5.28 0 0 1 1.75.75c.42.42 3.83 3.92 4.17 4.33a44.41 44.41 0 0 1 3.08 6.33 13.92 13.92 0 0 1-1.26 3.15 13.71 13.71 0 0 1-1.92.92c-.25.17-5.83 8-7.08 11.08s-4.08 9.92-5 11.33-2.58 4.33-3.92 4.42a31.71 31.71 0 0 0-5.33 1.42 9.42 9.42 0 0 0-2.17 1.92c-.25.42-2.92.17-2.92.17a21.87 21.87 0 0 0 3.17-2 15 15 0 0 1 4.92-2.25c1.5-.33 3.58-1.58 4.17-3s4.75-11.08 5.75-13.25a98.19 98.19 0 0 1 5.75-10.08c.67-.67 2.08-2.5 2.17-3.67s-3.93-9.1-4.51-9.94-2.66-.15-2.66-.15 1.08-4.69.83-5.53-2.83-2.39-3.24-3.56-3.42-10.75-3.67-12.92-1.08-16.08-1.25-18.08c-.63-7.28-10.06-22.85-10.81-25.19a3.56 3.56 0 0 1 1.39-4.31c1-.83 4.17-3.67 4.58-3.92a2.25 2.25 0 0 1 1-.25s.53-1.6.78-2.77 3.25-1.58 4.58-3c-.01.02 3.65-.65 3.09-.02zM52.54 93.82l25.7 9.63.13 2.13-29.15-11.83s-1.6-1.56-.87-1.43 2.68.94 2.87.88a4.84 4.84 0 0 1 1.32.62zM150.15 145.26s-2.5 18.67-2.75 19-1.33 2.33-1.33 2.33.58-2.67.83-4.42 1.75-15.67 1.75-16.08-1.42 1.42-2.5 1.58 1.42-2 1.75-2.5 1.42-1.17 1.67-1.5a6.88 6.88 0 0 0 1.25-1.58 1.64 1.64 0 0 0-.75-1.08c-.33-.17.25-1.42.17-1.67a15.57 15.57 0 0 0-1-1.5s-.75.33-.75.08-3.5-8.75-4.08-9.83S138 119 138 119s-.83-2.25-.58-2.33.83.17 2 1.92 5.92 8.08 6 8.58 4.92 9.42 5.08 10 1.33 3.67 1.33 3.67-.58-.33-.75 0 .5 1.75.08 2.75a17.84 17.84 0 0 0-.75 3.33M147.74 176.89s3.75-2.75 4.37-4.12l.62-1.37 3.5 3.75s-2.12 3.5-2 4 3.25-1.75 3.25-1.75a59.86 59.86 0 0 1 1.63 6.38c.38 2.38 2 14.35 1.87 20.88a93.34 93.34 0 0 1-3.15 21.65s-.32-3-.82-3-2.53 2.56-4 5.69-3.37 6.88-3.62 10.38-2.75-3.25 1-10.25 4.87-9.75 5-11.25-.39-20.74-.39-20.74-11.75 5.63-12.25 5.63 7.62-7.37 9.25-9.25a74.78 74.78 0 0 0 4.87-6.62c.25-.5 0-3.75-1.5-2.37s-7.87 8.5-10.25 9.88-.37-2.12.38-3.25 2.5-11 2-13.75" fill="#ece4e1"/><path d="M150.17 239.07s1.81 10.5 2.25 13 2.56 5.44 3 6.38-3.19-2.31-3.87-3.44 1.81 5.13 3.19 6.88 1.75 2.5 1.69 2.94-.12 4.44-.62 4.75-5.45 2.75-5.45 2.75l-2.92.33s-6.63 1.48-6.82 1.48 3.5-2.12 4.31-3.5.63-9 .63-9-.25-15-.06-16.25 1-8.25 2.5-10.62 2.06-3.25 2.06-3 2.19-1.37 2.19-1.37-2.01 7.24-2.08 8.67z" fill="#ece4e1"/><path d="M151.88 239c.2 1.63 4.55 20.21 4.55 20.21l5-3.41a61.49 61.49 0 0 1-3.63-8.8l-.88-3.33s2.65 4.49 3.88 4.49 4.83-.48 4.83-.48 5.24-4.08 5-4.08-5.92 1-8.43-1.09-6.6-5.78-6.05-9.45 1-6.26.48-5.58-2.52 4.22-2.52 4.22M120.12 32.34c-.87-2.75-1.88-.63-4.38.63a28.49 28.49 0 0 1-7.26 2.25c-2-.38-5.07-3.35-6.43-4.44-.17-.9-.29-1.55-.32-1.69-.12-.63 0-4.63.5-5.38s-.25 3.13 0 4.75-.25-3.88 1.5-5.13a35.17 35.17 0 0 1 5.5-2.75s-8.63-2.25-11.13-4.75-5-5.38-5.13-1.88c0 .88.25 11.38-.5 11.88l-2.25 1.5s5-1.88 5.88-1.38a9.39 9.39 0 0 1 3.25 6.13c.13 2.75.63 9.63.63 9.63l2.13.13s1.59-1.49 1.63-2.13c.26-4.87 3.73-2.56 5.88-1.25s11 .75 11.88.75-.5-4.12-1.38-6.87z" fill="#ece4e1"/><path d="M106.9 38.68c.57 0 1.45-.13 1.76.75a1.72 1.72 0 0 1-.09 1.59c-.16.41-.54-1-1.58-1.08a14.37 14.37 0 0 0-1.92.58c-.41.03 1.26-1.84 1.83-1.84zM108.91 38.62a21 21 0 0 0 3.81 1.31c1.13.13 4.37.31 4.37.31s-4.19.69-5.31.31a14.06 14.06 0 0 1-2.87-1.93z" fill="#ece4e1"/><path d="M28.77 108.91a5.83 5.83 0 0 0-1.42 2.09 2.7 2.7 0 0 0 .58 2.17c.5.42.5.08.5.08s-.67-1.42-.08-2.17 1.08-1.42 1.67-1.17a4.8 4.8 0 0 1 1.33 1.33l.42-.17s-1.33-1.58-1.58-1.83a1.49 1.49 0 0 0-1.42-.33z" fill="#5b1b18"/><path d="M74.47 123.37s5-14.75 2.85-22.41c-.26-.94 1.27-1.09 1.27-1.09l.5 9.75s-2.87 12.5-3.62 14.38-1.42-.5-1.42-.5" fill="#231f20"/></svg>